<?xml version="1.0" encoding="utf-8"?>
<!-- Generator: Adobe Illustrator 19.0.0, SVG Export Plug-In . SVG Version: 6.00 Build 0)  -->
<svg version="1.1" id="Layer_1" xmlns="http://www.w3.org/2000/svg" xmlns:xlink="http://www.w3.org/1999/xlink" x="0px" y="0px"
	 viewBox="0 0 498.6 326" style="enable-background:new 0 0 498.6 326;" xml:space="preserve">
<style type="text/css">
	.st0{fill:#734B00;}
	.st1{fill:#BC995C;}
	.st2{fill:#A70531;}
	.st3{fill:#4F2500;}
	.st4{fill:#FFFFFF;}
	.st5{fill:#FDB515;}
	.st6{fill:#FFFFFF;stroke:#734B00;stroke-width:0.3805;stroke-miterlimit:10;}
	.st7{fill:#009055;}
	.st8{fill:#754E00;}
	.st9{fill:#FBAA29;}
</style>
<g id="XMLID_1_">
	<path id="XMLID_120_" class="st0" d="M160.6,214v5.5c0,0-3.5,2.1-2.4,5.8c1.1,3.6,4.2,5.3,8.8,5c4.5-0.3,10.9-3.6,5.9-11.1l0.3-0.8
		c0,0,5-0.3,8.6,3.6c3.6,3.9,8.2,9.2,10.4,9.7c2.3,0.5,2.7-0.8,2.7-0.8l7.7-18.5c0,0,1.8-1.2-0.9-2.3c-2.7-1.1-7.4-2.3-10.1-8.2
		c-2.7-5.9-3.6-12.4-8.2-15.6c-4.5-3.2-7.4-4.5-7.4-4.5s1.5-3.3,0.5-5c0,0,6.4-0.9,5.8-6.2c0,0,6.5-0.8,4.2-8.6
		c0,0,7.1-2.3,4.1-10.3c0,0,7.3-3,7.6-13.2c0.3-10.1-3-15.3-2.7-18.8c0.3-3.5,2.4-8.3,2.4-8.3s-9.7,2-9.7,9.7c0,0-3.3-7.4,0-13.3
		c0,0-7.6,2.1-8.3,8.6c0,0,1.2-12.9-9.2-17.7c0,0,0.6,10.1-1.2,12.9c0,0-0.6-12.9-10.8-14.5c0,0,1.8,12.3-4.1,16.2
		c0,0-3.2-9.1-8.2-10.6c0,0,0.1,6.5-3.5,12.4c-3.6,5.9-5.9,27.7,1.7,34.7c0,0-6.7,5.5,2,12.3c0,0-2.3,5.3,6.1,8.5
		c0,0-1.1,4.7,4.2,6.4v2c0,0-5.6,0.2-6.2,5.9c0,0-6.5,3.9-2.3,9.4c0,0-4.2,3.5,0.5,8.3c0,0-2.4,4.7,4.4,8.3
		C160,214.4,160.6,214,160.6,214z"/>
	<path id="XMLID_119_" class="st1" d="M397.6,102.9l-148.4-62v0v0v0v0l-148.4,62c0,0,29.9,25.9,19.9,75.5
		c-10,49.6-26.2,113.2,39.3,122.3c65.5,9.2,84.8,16.2,89.1,25.3l0,0l0,0l0,0l0,0c4.4-9.2,23.7-16.2,89.1-25.3
		c65.5-9.2,49.2-72.8,39.3-122.3C367.7,128.7,397.6,102.9,397.6,102.9z"/>
	<path id="XMLID_118_" class="st2" d="M249.3,316.2c-10-7.4-32.6-13.7-88-21.4c-14.9-2.1-25.5-7.2-32.5-15.7
		c-17.2-21-9.4-59.2-2.5-92.9c0.5-2.3,0.9-4.6,1.4-6.9c7.7-38.4-7.1-63.4-16-74.4l137.6-57.5L386.9,105c-8.9,11-23.7,36-16,74.4
		c0.5,2.3,0.9,4.6,1.4,6.9c6.9,33.7,14.7,72-2.5,92.9c-6.9,8.5-17.6,13.6-32.5,15.7C281.9,302.5,259.3,308.8,249.3,316.2z"/>
	<polygon id="XMLID_117_" class="st1" points="498.6,89.4 249.5,0.1 249.5,0 249.3,0.1 249.1,0 249.1,0.1 0,89.4 0,141.4 
		249.3,54.5 498.6,141.4 	"/>
	<polygon id="XMLID_116_" class="st3" points="249.3,48.1 6.9,132.6 6.9,93.3 249.3,6.5 491.7,93.3 491.7,132.6 	"/>
	<g id="XMLID_164_">
		<path id="XMLID_165_" class="st1" d="M16.5,111.7l5.1-2.2c0.1,1.1,0.3,1.8,0.6,2.3c0.5,0.8,1.3,0.9,2.3,0.6
			c0.8-0.3,1.4-0.7,1.8-1.3c0.4-0.6,0.6-1.3,0.7-1.9c0-0.6-0.2-1.1-0.5-1.4c-0.4-0.3-1.3-0.5-2.7-0.4c-2.3,0.1-4-0.3-4.9-1.1
			c-1-0.8-1.4-2.1-1.4-4c0-1.2,0.3-2.4,0.9-3.7c0.5-1.2,1.3-2.3,2.4-3.3c1-1,2.5-1.8,4.3-2.4c2.2-0.8,3.9-0.8,5-0.1
			c1.1,0.7,1.8,2.2,1.9,4.6l-5,2.1c-0.1-1-0.4-1.7-0.8-2s-1-0.4-1.7-0.1c-0.6,0.2-1.1,0.6-1.4,1c-0.3,0.5-0.5,0.9-0.5,1.5
			c0,0.4,0.1,0.7,0.4,0.9c0.2,0.2,0.8,0.3,1.8,0.2c2.3-0.1,4,0,4.9,0.3c1,0.3,1.7,0.9,2.1,1.8c0.4,0.9,0.6,1.9,0.6,3.2
			c0,1.5-0.4,3-1,4.4c-0.6,1.5-1.5,2.7-2.6,3.7c-1.1,1-2.5,1.8-4.2,2.4c-2.9,1-4.9,1-6-0.2C17.2,115.7,16.6,114,16.5,111.7z"/>
		<path id="XMLID_167_" class="st1" d="M34.1,90.2l16.2-5.6l-0.2,5.7l-5.4,1.9l-0.5,17.5l-5.3,1.8l0.5-17.5l-5.4,1.9L34.1,90.2z"/>
		<path id="XMLID_169_" class="st1" d="M48.2,101.9l5.1-1.8l-0.2,6.5l-5.1,1.8L48.2,101.9z"/>
		<path id="XMLID_171_" class="st1" d="M75.1,95.2l-6,2.1l-0.9,4.1l-5.4,1.9l7.1-25.5l5.8-2l5.8,21l-5.6,1.9L75.1,95.2z M74.1,90.6
			l-1.7-7.7l-2.1,9L74.1,90.6z"/>
		<path id="XMLID_174_" class="st1" d="M83.8,73l5-1.7l6.1,10.6L95.2,69l5-1.7l-0.7,23.2l-5,1.7l-6.1-10.5l-0.4,12.8l-5,1.7L83.8,73
			z"/>
		<path id="XMLID_176_" class="st1" d="M102.6,66.5l16.2-5.6l-0.2,5.7l-5.4,1.9L112.7,86l-5.3,1.8l0.5-17.5l-5.4,1.9L102.6,66.5z"/>
		<path id="XMLID_178_" class="st1" d="M121.2,60l5.3-1.8l-0.2,8.1l5.8-2l0.2-8.1l5.3-1.9L137,77.5l-5.3,1.9L132,70l-5.8,2l-0.3,9.4
			l-5.3,1.8L121.2,60z"/>
		<path id="XMLID_180_" class="st1" d="M140.2,64.9c0.1-3.8,1-7,2.6-9.7c1.6-2.7,3.8-4.5,6.6-5.4c2.9-1,5-0.7,6.5,0.8
			c1.5,1.5,2.2,4.2,2.1,7.9c-0.1,2.7-0.5,5.1-1.2,7c-0.7,2-1.7,3.7-3.1,5.1c-1.3,1.4-2.9,2.4-4.8,3.1c-1.9,0.7-3.5,0.8-4.8,0.4
			c-1.2-0.4-2.2-1.4-3-2.9C140.5,69.8,140.2,67.6,140.2,64.9z M145.6,63.1c-0.1,2.3,0.2,3.9,0.8,4.7c0.6,0.8,1.5,1,2.6,0.6
			c1.1-0.4,2-1.2,2.7-2.4c0.7-1.2,1-3.1,1.1-5.7c0.1-2.2-0.2-3.7-0.8-4.5c-0.6-0.8-1.5-1-2.6-0.6c-1.1,0.4-1.9,1.2-2.6,2.4
			C146,58.9,145.6,60.7,145.6,63.1z"/>
		<path id="XMLID_183_" class="st1" d="M161.3,46.1l5-1.7l6.1,10.6l0.4-12.9l5-1.7l-0.7,23.2l-5,1.7L166,54.8l-0.4,12.8l-5,1.7
			L161.3,46.1z"/>
		<path id="XMLID_185_" class="st1" d="M179.6,39.8l5.9-2l3.3,6.6l3.7-9l5.9-2l-7.1,15.8l-0.3,9.7l-5.3,1.8l0.3-9.7L179.6,39.8z"/>
		<path id="XMLID_187_" class="st1" d="M199.1,32.6l5.1-1.8l-0.1,5.3c-0.1,2-0.4,3.6-1,5c-0.6,1.3-1.7,2.7-3.2,4.1l-1-2.4
			c0.9-0.9,1.6-1.7,1.9-2.4c0.4-0.7,0.6-1.4,0.6-2.2L199,39L199.1,32.6z"/>
		<path id="XMLID_189_" class="st1" d="M205.4,46.2l5.1-2.2c0.1,1.1,0.3,1.8,0.6,2.3c0.5,0.8,1.3,0.9,2.3,0.6
			c0.8-0.3,1.4-0.7,1.8-1.3c0.4-0.6,0.6-1.3,0.7-1.9c0-0.6-0.2-1.1-0.5-1.4c-0.4-0.3-1.3-0.5-2.7-0.4c-2.3,0.1-4-0.3-4.9-1.1
			c-1-0.8-1.4-2.1-1.4-4c0-1.2,0.3-2.4,0.9-3.7c0.5-1.2,1.3-2.3,2.4-3.3c1-1,2.5-1.8,4.3-2.4c2.2-0.8,3.9-0.8,5-0.1
			c1.1,0.7,1.8,2.2,1.9,4.6l-5,2.1c-0.1-1-0.4-1.7-0.8-2c-0.4-0.3-1-0.4-1.7-0.1c-0.6,0.2-1.1,0.6-1.4,1c-0.3,0.5-0.5,0.9-0.5,1.5
			c0,0.4,0.1,0.7,0.4,0.9c0.2,0.2,0.8,0.3,1.8,0.2c2.3-0.1,4,0,4.9,0.3c1,0.3,1.7,0.9,2.1,1.8c0.4,0.9,0.6,1.9,0.6,3.2
			c0,1.5-0.4,3-1,4.4c-0.6,1.5-1.5,2.7-2.6,3.7c-1.1,1-2.5,1.8-4.2,2.4c-2.9,1-4.9,1-6-0.2C206.1,50.2,205.5,48.5,205.4,46.2z"/>
		<path id="XMLID_191_" class="st1" d="M230.8,37.4l5.1-2.2c0.1,1.1,0.3,1.8,0.6,2.3c0.5,0.8,1.3,0.9,2.3,0.6
			c0.8-0.3,1.4-0.7,1.8-1.3c0.4-0.6,0.6-1.3,0.7-1.9c0-0.6-0.2-1.1-0.5-1.4c-0.4-0.3-1.3-0.5-2.7-0.4c-2.3,0.1-4-0.3-4.9-1.1
			c-1-0.8-1.4-2.1-1.4-4c0-1.2,0.3-2.4,0.9-3.7c0.5-1.2,1.3-2.3,2.4-3.3c1-1,2.5-1.8,4.3-2.4c2.2-0.8,3.9-0.8,5-0.1
			c1.1,0.7,1.8,2.2,1.9,4.6l-5,2.1c-0.1-1-0.4-1.7-0.8-2c-0.4-0.3-1-0.4-1.7-0.1c-0.6,0.2-1.1,0.6-1.4,1c-0.3,0.5-0.5,0.9-0.5,1.5
			c0,0.4,0.1,0.7,0.4,0.9c0.2,0.2,0.8,0.3,1.8,0.2c2.3-0.1,4,0,4.9,0.3c1,0.3,1.7,0.9,2.1,1.8c0.4,0.9,0.6,1.9,0.6,3.2
			c0,1.5-0.4,3-1,4.4c-0.6,1.5-1.5,2.7-2.6,3.7c-1.1,1-2.5,1.8-4.2,2.4c-2.9,1-4.9,1-6-0.2C231.5,41.4,230.9,39.7,230.8,37.4z"/>
	</g>
	<g id="XMLID_131_">
		<g id="XMLID_422_">
			<path id="XMLID_453_" class="st1" d="M262.8,33.9l4.6,3.7c-0.4,1.8-0.9,3.1-1.6,4.2c-0.7,1-1.6,1.7-2.6,1.9
				c-1,0.3-2.3,0.2-3.9-0.4c-1.9-0.7-3.4-1.6-4.6-2.8c-1.2-1.2-2.2-2.9-3-5.2c-0.8-2.3-1.2-4.9-1.1-8c0.1-4.1,0.9-6.9,2.5-8.6
				c1.6-1.6,3.7-2,6.5-1c2.2,0.8,3.9,2,5.1,3.7c1.2,1.7,2.1,3.9,2.7,6.7l-4.8-0.2c-0.2-0.8-0.3-1.4-0.5-1.8
				c-0.3-0.7-0.6-1.3-1.1-1.7c-0.4-0.5-0.9-0.8-1.4-1c-1.2-0.4-2.2-0.1-2.8,1.1c-0.5,0.9-0.8,2.4-0.8,4.6c-0.1,2.7,0.2,4.7,0.8,5.9
				c0.6,1.2,1.4,2,2.4,2.4c1,0.4,1.8,0.2,2.3-0.4C262.1,36.5,262.5,35.4,262.8,33.9z"/>
			<path id="XMLID_451_" class="st1" d="M270.4,22l5.4,1.9l-0.2,8.6l5.8,2.1l0.2-8.6l5.4,1.9l-0.5,24.6l-5.4-1.9l0.2-9.9l-5.8-2.1
				l-0.2,9.9l-5.4-1.9L270.4,22z"/>
			<path id="XMLID_448_" class="st1" d="M289.6,41.1c0.1-4,0.9-6.9,2.5-8.5c1.6-1.7,3.8-2,6.6-1c2.9,1,5.1,2.9,6.6,5.6
				c1.5,2.7,2.2,6.1,2.2,10.1c-0.1,2.9-0.4,5.1-1.2,6.7c-0.7,1.6-1.7,2.7-3,3.3c-1.3,0.6-2.9,0.5-4.8-0.2c-2-0.7-3.6-1.7-4.8-3
				c-1.3-1.3-2.3-3.1-3-5.3C289.9,46.6,289.5,44,289.6,41.1z M294.9,43.1c-0.1,2.5,0.2,4.4,0.9,5.7c0.6,1.3,1.5,2.2,2.6,2.6
				c1.1,0.4,2,0.2,2.7-0.7c0.7-0.8,1-2.6,1.1-5.4c0-2.3-0.2-4.1-0.9-5.4c-0.6-1.3-1.5-2.1-2.6-2.5c-1.1-0.4-2-0.1-2.6,0.7
				C295.3,38.9,295,40.6,294.9,43.1z"/>
			<path id="XMLID_445_" class="st1" d="M309.7,48.2c0.1-4,0.9-6.9,2.5-8.5c1.6-1.7,3.8-2,6.6-1c2.9,1,5.1,2.9,6.6,5.6
				c1.5,2.7,2.2,6.1,2.2,10.1c-0.1,2.9-0.4,5.1-1.2,6.7c-0.7,1.6-1.7,2.7-3,3.3c-1.3,0.6-2.9,0.5-4.8-0.2c-2-0.7-3.6-1.7-4.8-3
				c-1.3-1.3-2.3-3.1-3-5.3C310,53.6,309.7,51.1,309.7,48.2z M315.1,50.2c-0.1,2.5,0.2,4.4,0.9,5.7c0.6,1.3,1.5,2.2,2.6,2.6
				c1.1,0.4,2,0.2,2.7-0.7c0.7-0.8,1-2.6,1.1-5.4c0-2.3-0.2-4.1-0.9-5.4c-0.6-1.3-1.5-2.1-2.6-2.5c-1.1-0.4-2-0.1-2.6,0.7
				C315.5,46,315.1,47.6,315.1,50.2z"/>
			<path id="XMLID_443_" class="st1" d="M330.8,43.3l5.3,1.9l-0.4,18.5l8.4,2.9l-0.1,6.1l-13.7-4.8L330.8,43.3z"/>
			<path id="XMLID_440_" class="st1" d="M355.1,51.8l7.9,2.8c1.6,0.6,2.8,1.3,3.8,2.2c1,0.9,1.7,2.1,2.3,3.4c0.6,1.4,1,2.8,1.3,4.4
				c0.3,1.6,0.4,3.2,0.3,4.9c-0.1,2.6-0.3,4.6-0.8,5.9c-0.5,1.3-1.1,2.3-1.8,3c-0.8,0.7-1.6,1.1-2.4,1.1c-1.2,0-2.3-0.1-3.2-0.5
				l-7.9-2.8L355.1,51.8z M360.3,59.2L360,72.7l1.3,0.5c1.1,0.4,1.9,0.5,2.4,0.3c0.5-0.2,0.9-0.7,1.1-1.5c0.3-0.8,0.4-2.2,0.5-4.1
				c0.1-2.6-0.2-4.5-0.8-5.7c-0.6-1.2-1.6-2-2.9-2.5L360.3,59.2z"/>
			<path id="XMLID_437_" class="st1" d="M372.9,70.5c0.1-4,0.9-6.9,2.5-8.5c1.6-1.7,3.8-2,6.6-1c2.9,1,5.1,2.9,6.6,5.6
				c1.5,2.7,2.2,6.1,2.2,10.1c-0.1,2.9-0.4,5.1-1.2,6.7c-0.7,1.6-1.7,2.7-3,3.3c-1.3,0.6-2.9,0.5-4.8-0.2c-2-0.7-3.6-1.7-4.8-3
				c-1.3-1.3-2.3-3.1-3-5.3C373.2,75.9,372.8,73.3,372.9,70.5z M378.2,72.4c-0.1,2.5,0.2,4.4,0.9,5.7c0.6,1.3,1.5,2.2,2.6,2.6
				c1.1,0.4,2,0.2,2.7-0.7c0.7-0.8,1-2.6,1.1-5.4c0-2.3-0.2-4.1-0.9-5.4c-0.6-1.3-1.5-2.1-2.6-2.5c-1.1-0.4-2-0.1-2.6,0.7
				C378.6,68.2,378.3,69.9,378.2,72.4z"/>
			<path id="XMLID_434_" class="st1" d="M393.5,90.1l0.5-24.6l8.9,3.1c1.7,0.6,2.9,1.2,3.8,1.9c0.9,0.7,1.6,1.7,2.1,3
				c0.5,1.3,0.8,2.7,0.7,4.3c0,1.4-0.3,2.5-0.7,3.3c-0.4,0.8-1,1.4-1.7,1.8c-0.5,0.2-1.1,0.3-1.9,0.3c0.6,0.5,1.1,1,1.4,1.4
				c0.2,0.3,0.5,0.8,0.8,1.6c0.4,0.8,0.6,1.4,0.7,1.8l2.4,8l-6-2.1l-2.7-8.5c-0.3-1.1-0.7-1.8-0.9-2.2c-0.4-0.5-0.8-0.9-1.3-1
				l-0.5-0.2l-0.2,10L393.5,90.1z M399.2,77.4l2.3,0.8c0.2,0.1,0.7,0.1,1.4,0.2c0.4,0,0.7-0.1,0.9-0.5c0.2-0.3,0.4-0.8,0.4-1.3
				c0-0.8-0.1-1.5-0.5-2c-0.3-0.5-1-1-2-1.3l-2.4-0.8L399.2,77.4z"/>
			<path id="XMLID_431_" class="st1" d="M423,96.4l-6.1-2.1L416,98l-5.5-1.9l7-22.3l5.8,2.1l6,26.9l-5.6-2L423,96.4z M422,90.7
				l-1.7-9.5l-2.1,8.2L422,90.7z"/>
			<path id="XMLID_429_" class="st1" d="M431.6,78.7l5,1.8l6.2,15.9l0.3-13.6l5,1.8l-0.5,24.6l-5-1.8l-6.2-15.8l-0.3,13.5l-5-1.8
				L431.6,78.7z"/>
			<path id="XMLID_426_" class="st1" d="M451.8,85.8l7.9,2.8c1.6,0.6,2.8,1.3,3.8,2.2c1,0.9,1.7,2.1,2.3,3.4c0.6,1.4,1,2.8,1.3,4.4
				c0.3,1.6,0.4,3.2,0.3,4.9c-0.1,2.6-0.3,4.6-0.8,5.9c-0.5,1.3-1.1,2.3-1.8,3c-0.8,0.7-1.6,1.1-2.4,1.1c-1.2,0-2.3-0.1-3.2-0.5
				l-7.9-2.8L451.8,85.8z M457.1,93.3l-0.3,13.4l1.3,0.5c1.1,0.4,1.9,0.5,2.4,0.3c0.5-0.2,0.9-0.7,1.1-1.5c0.3-0.8,0.4-2.2,0.5-4.1
				c0.1-2.6-0.2-4.5-0.8-5.7c-0.6-1.2-1.6-2-2.9-2.5L457.1,93.3z"/>
			<path id="XMLID_423_" class="st1" d="M479.8,116.3l-6.1-2.1l-0.9,3.8l-5.5-1.9l7-22.3l5.8,2.1l6,26.9l-5.6-2L479.8,116.3z
				 M478.7,110.6l-1.7-9.5l-2.1,8.2L478.7,110.6z"/>
		</g>
	</g>
	<path id="XMLID_111_" class="st1" d="M249.5,51.2V51l-0.2,0.1l-0.2-0.1v0.2L159.2,84c0,0,31.4,38.7,90,17.9
		c58.6,20.8,90-17.9,90-17.9L249.5,51.2z"/>
	<path id="XMLID_110_" class="st3" d="M450.6,256.5L406,194.9v-0.4c-0.1-0.1-0.2-0.3-0.4-0.4c-0.9,0.7-1.9,1.4-2.8,2.1
		c-1,0.7-1.9,1.4-2.8,2c-0.9,0.7-1.9,1.3-2.8,2c-1,0.6-1.9,1.3-2.8,1.9c-0.9,0.6-1.9,1.2-2.8,1.9c-0.9,0.6-1.9,1.2-2.8,1.8
		c-0.9,0.6-1.9,1.2-2.8,1.7c-0.9,0.6-1.9,1.1-2.8,1.7c-0.9,0.6-1.9,1.1-2.8,1.6c-0.9,0.5-1.9,1.1-2.8,1.6c-0.9,0.5-1.9,1-2.8,1.5
		c-0.9,0.5-1.9,1-2.8,1.5c-0.9,0.5-1.9,1-2.8,1.4c-0.9,0.5-1.9,0.9-2.8,1.4c-0.9,0.5-1.9,0.9-2.8,1.4c-0.9,0.4-1.8,0.9-2.8,1.3
		c-0.9,0.4-1.8,0.9-2.8,1.3c-0.9,0.4-1.8,0.8-2.8,1.2c-0.9,0.4-1.8,0.8-2.8,1.2c-0.9,0.4-1.8,0.8-2.7,1.2c-0.9,0.4-1.8,0.7-2.7,1.1
		c-0.9,0.4-1.8,0.7-2.7,1.1c-0.9,0.4-1.8,0.7-2.7,1c-0.9,0.3-1.8,0.7-2.7,1c-0.9,0.3-1.8,0.6-2.7,1c-0.9,0.3-1.8,0.6-2.7,0.9
		c-0.9,0.3-1.8,0.6-2.7,0.9s-1.8,0.6-2.7,0.9c-0.9,0.3-1.8,0.6-2.7,0.8c-0.9,0.3-1.8,0.5-2.7,0.8c-0.9,0.3-1.8,0.5-2.7,0.8
		c-0.9,0.3-1.8,0.5-2.6,0.7c-0.9,0.2-1.8,0.5-2.7,0.7c-0.9,0.2-1.8,0.5-2.6,0.7c-0.9,0.2-1.8,0.4-2.6,0.6c-0.9,0.2-1.8,0.4-2.6,0.6
		c-0.9,0.2-1.8,0.4-2.6,0.6c-0.9,0.2-1.8,0.4-2.6,0.6c-0.9,0.2-1.7,0.4-2.6,0.5c-0.9,0.2-1.7,0.3-2.6,0.5c-0.9,0.2-1.7,0.3-2.6,0.5
		c-0.9,0.1-1.7,0.3-2.6,0.4c-0.9,0.1-1.7,0.3-2.6,0.4c-0.9,0.1-1.7,0.3-2.6,0.4c-0.9,0.1-1.7,0.2-2.6,0.4c-0.9,0.1-1.7,0.2-2.6,0.3
		c-0.9,0.1-1.7,0.2-2.6,0.3c-0.9,0.1-1.7,0.2-2.6,0.3c-0.9,0.1-1.7,0.2-2.6,0.3c-0.9,0.1-1.7,0.2-2.6,0.2c-0.9,0.1-1.7,0.1-2.6,0.2
		c-0.9,0.1-1.7,0.1-2.6,0.2c-0.9,0.1-1.7,0.1-2.6,0.2c-0.8,0.1-1.7,0.1-2.6,0.1c-0.9,0-1.7,0.1-2.6,0.1c-0.9,0-1.7,0.1-2.6,0.1
		c-0.9,0-1.7,0-2.6,0.1c-0.8,0-1.7,0-2.6,0c-0.9,0-1.7,0-2.6,0c-0.9,0-1.7,0-2.6,0c-0.9,0-1.7,0-2.6,0c-0.9,0-1.7,0-2.6-0.1
		c-0.8,0-1.7-0.1-2.6-0.1c-0.8,0-1.7-0.1-2.6-0.1c-0.9,0-1.7-0.1-2.6-0.1c-0.9-0.1-1.7-0.1-2.6-0.2c-0.9-0.1-1.7-0.1-2.6-0.2
		c-0.9-0.1-1.7-0.1-2.6-0.2c-0.9-0.1-1.7-0.2-2.6-0.2c-0.9-0.1-1.7-0.2-2.6-0.3c-0.9-0.1-1.7-0.2-2.6-0.3c-0.9-0.1-1.7-0.2-2.6-0.3
		c-0.9-0.1-1.7-0.2-2.6-0.3c-0.9-0.1-1.7-0.2-2.6-0.4c-0.9-0.1-1.7-0.3-2.6-0.4c-0.9-0.1-1.7-0.3-2.6-0.4c-0.9-0.1-1.7-0.3-2.6-0.4
		c-0.9-0.2-1.7-0.3-2.6-0.5c-0.9-0.2-1.7-0.3-2.6-0.5c-0.9-0.2-1.7-0.3-2.6-0.5c-0.9-0.2-1.7-0.4-2.6-0.6c-0.9-0.2-1.7-0.4-2.6-0.6
		c-0.9-0.2-1.8-0.4-2.6-0.6c-0.9-0.2-1.8-0.4-2.6-0.6c-0.9-0.2-1.8-0.4-2.6-0.7c-0.9-0.2-1.8-0.5-2.7-0.7c-0.9-0.2-1.8-0.5-2.7-0.7
		c-0.9-0.2-1.8-0.5-2.7-0.8c-0.9-0.3-1.8-0.5-2.7-0.8c-0.9-0.3-1.8-0.5-2.7-0.8c-0.9-0.3-1.8-0.6-2.7-0.9s-1.8-0.6-2.7-0.9
		c-0.9-0.3-1.8-0.6-2.7-0.9c-0.9-0.3-1.8-0.6-2.7-1c-0.9-0.3-1.8-0.7-2.7-1c-0.9-0.3-1.8-0.7-2.7-1c-0.9-0.3-1.8-0.7-2.7-1.1
		c-0.9-0.4-1.8-0.7-2.7-1.1c-0.9-0.4-1.8-0.8-2.7-1.2c-0.9-0.4-1.8-0.8-2.7-1.2c-0.9-0.4-1.8-0.8-2.8-1.2c-0.9-0.4-1.8-0.8-2.8-1.3
		c-0.9-0.4-1.8-0.9-2.8-1.3c-0.9-0.4-1.9-0.9-2.8-1.4c-0.9-0.5-1.9-0.9-2.8-1.4c-0.9-0.5-1.9-1-2.8-1.4c-0.9-0.5-1.9-1-2.8-1.5
		c-0.9-0.5-1.9-1-2.8-1.5c-0.9-0.5-1.9-1.1-2.8-1.6c-0.9-0.5-1.9-1.1-2.8-1.6c-0.9-0.6-1.9-1.1-2.8-1.7c-0.9-0.6-1.9-1.2-2.8-1.7
		c-0.9-0.6-1.9-1.2-2.8-1.8c-0.9-0.6-1.9-1.2-2.8-1.8c-0.9-0.6-1.9-1.3-2.8-1.9c-0.9-0.6-1.9-1.3-2.8-2c-1-0.7-1.9-1.3-2.8-2
		c-0.9-0.7-1.9-1.4-2.8-2.1c-0.1,0.1-0.1,0.2-0.2,0.3v0.5l-0.1-0.1L44,256.5c0,0-1.1,16.1,14.2,24.6c15.3,8.5,28.9,10.4,37.1-5.2
		c5.8-10.9,11.5-20,14.4-24.5c0.1,0.1,0.2,0.1,0.3,0.2c0.9,0.5,1.8,0.9,2.8,1.4c0.9,0.4,1.9,0.9,2.8,1.3c0.9,0.4,1.8,0.9,2.8,1.3
		c0.9,0.4,1.8,0.8,2.8,1.3c0.9,0.4,1.8,0.8,2.8,1.2c0.9,0.4,1.8,0.8,2.8,1.2c0.9,0.4,1.8,0.8,2.7,1.2c0.9,0.4,1.8,0.7,2.7,1.1
		c0.9,0.4,1.8,0.7,2.7,1.1c0.9,0.4,1.8,0.7,2.7,1c0.9,0.3,1.8,0.7,2.7,1c0.9,0.3,1.8,0.7,2.7,1c0.9,0.3,1.8,0.6,2.7,1
		c0.9,0.3,1.8,0.6,2.7,0.9c0.9,0.3,1.8,0.6,2.7,0.9c0.9,0.3,1.8,0.6,2.7,0.9c0.9,0.3,1.8,0.6,2.7,0.8c0.9,0.3,1.8,0.5,2.7,0.8
		c0.9,0.3,1.8,0.5,2.7,0.8c0.9,0.3,1.8,0.5,2.7,0.8c0.9,0.2,1.8,0.5,2.7,0.7c0.9,0.2,1.8,0.5,2.6,0.7c0.9,0.2,1.8,0.5,2.6,0.7
		c0.9,0.2,1.8,0.4,2.6,0.6c0.9,0.2,1.8,0.4,2.6,0.6c0.9,0.2,1.8,0.4,2.6,0.6c0.9,0.2,1.7,0.4,2.6,0.6c0.9,0.2,1.7,0.4,2.6,0.5
		c0.9,0.2,1.7,0.3,2.6,0.5c0.9,0.2,1.7,0.3,2.6,0.5c0.9,0.2,1.7,0.3,2.6,0.5c0.9,0.1,1.7,0.3,2.6,0.4c0.9,0.1,1.7,0.3,2.6,0.4
		c0.9,0.1,1.7,0.3,2.6,0.4c0.9,0.1,1.7,0.3,2.6,0.4c0.9,0.1,1.7,0.2,2.6,0.4c0.9,0.1,1.7,0.2,2.6,0.3c0.9,0.1,1.7,0.2,2.6,0.3
		c0.9,0.1,1.7,0.2,2.6,0.3c0.9,0.1,1.7,0.2,2.6,0.3c0.9,0.1,1.7,0.2,2.6,0.2c0.9,0.1,1.7,0.1,2.6,0.2c0.9,0.1,1.7,0.1,2.6,0.2
		c0.9,0.1,1.7,0.1,2.6,0.2c0.8,0.1,1.7,0.1,2.6,0.2c0.9,0.1,1.7,0.1,2.6,0.1c0.9,0,1.7,0.1,2.6,0.1c0.8,0,1.7,0.1,2.6,0.1
		c0.8,0,1.7,0,2.6,0.1c0.8,0,1.7,0,2.6,0.1c0.8,0,1.7,0,2.6,0c0.8,0,1.7,0,2.6,0c0.9,0,1.7,0,2.6,0c0.9,0,1.7,0,2.6,0
		c0.9,0,1.7,0,2.6-0.1c0.9,0,1.7,0,2.6-0.1c0.9,0,1.7-0.1,2.6-0.1c0.9,0,1.7-0.1,2.6-0.1c0.9,0,1.7-0.1,2.6-0.1
		c0.8-0.1,1.7-0.1,2.6-0.2c0.9-0.1,1.7-0.1,2.6-0.2c0.9-0.1,1.7-0.1,2.6-0.2c0.9-0.1,1.7-0.1,2.6-0.2c0.9-0.1,1.7-0.2,2.6-0.2
		c0.9-0.1,1.7-0.2,2.6-0.3s1.7-0.2,2.6-0.3c0.9-0.1,1.7-0.2,2.6-0.3c0.9-0.1,1.7-0.2,2.6-0.3c0.9-0.1,1.7-0.2,2.6-0.4
		c0.9-0.1,1.7-0.2,2.6-0.4c0.9-0.1,1.7-0.3,2.6-0.4c0.9-0.1,1.7-0.3,2.6-0.4c0.9-0.1,1.7-0.3,2.6-0.4c0.9-0.2,1.7-0.3,2.6-0.5
		c0.9-0.2,1.7-0.3,2.6-0.5c0.9-0.2,1.7-0.3,2.6-0.5c0.9-0.2,1.7-0.4,2.6-0.5c0.9-0.2,1.8-0.4,2.6-0.6c0.9-0.2,1.8-0.4,2.6-0.6
		c0.9-0.2,1.8-0.4,2.6-0.6c0.9-0.2,1.8-0.4,2.6-0.6c0.9-0.2,1.8-0.4,2.6-0.7c0.9-0.2,1.8-0.5,2.6-0.7c0.9-0.2,1.8-0.5,2.7-0.7
		c0.9-0.2,1.8-0.5,2.7-0.8c0.9-0.3,1.8-0.5,2.7-0.8c0.9-0.3,1.8-0.5,2.7-0.8c0.9-0.3,1.8-0.6,2.7-0.8c0.9-0.3,1.8-0.6,2.7-0.9
		c0.9-0.3,1.8-0.6,2.7-0.9c0.9-0.3,1.8-0.6,2.7-0.9c0.9-0.3,1.8-0.6,2.7-1c0.9-0.3,1.8-0.7,2.7-1c0.9-0.3,1.8-0.7,2.7-1
		c0.9-0.3,1.8-0.7,2.7-1c0.9-0.4,1.8-0.7,2.7-1.1c0.9-0.4,1.8-0.7,2.7-1.1c0.9-0.4,1.8-0.8,2.7-1.2c0.9-0.4,1.8-0.8,2.7-1.2
		c0.9-0.4,1.8-0.8,2.8-1.2c0.9-0.4,1.8-0.8,2.8-1.3c0.9-0.4,1.8-0.9,2.8-1.3c0.9-0.4,1.8-0.9,2.8-1.3c0.9-0.4,1.9-0.9,2.8-1.4
		c0.1,0,0.2-0.1,0.2-0.1c2.9,4.5,8.7,13.5,14.4,24.4c8.2,15.6,21.8,13.7,37.1,5.2C451.7,272.5,450.6,256.5,450.6,256.5z"/>
	<g id="XMLID_2_">
		<path id="XMLID_3_" class="st4" d="M194.1,96.1V74.9h9.1c1.7,0,3,0.2,3.9,0.5c0.9,0.3,1.6,1,2.2,1.9c0.5,0.9,0.8,2.1,0.8,3.4
			c0,1.2-0.2,2.2-0.6,3c-0.4,0.9-1,1.5-1.7,2.1c-0.5,0.3-1.1,0.6-1.9,0.8c0.7,0.3,1.1,0.5,1.4,0.8c0.2,0.2,0.5,0.5,0.9,1.1
			s0.6,1,0.8,1.3l2.6,6.2h-6.2l-2.9-6.5c-0.4-0.8-0.7-1.4-1-1.6c-0.4-0.3-0.8-0.5-1.3-0.5h-0.5v8.6H194.1z M199.6,83.5h2.3
			c0.2,0,0.7-0.1,1.4-0.3c0.4-0.1,0.7-0.3,0.9-0.7c0.2-0.4,0.3-0.8,0.3-1.2c0-0.7-0.2-1.2-0.5-1.6c-0.4-0.4-1-0.6-2-0.6h-2.4V83.5z"
			/>
		<path id="XMLID_6_" class="st4" d="M224.2,92.6H218l-0.9,3.5h-5.6l6.6-21.2h6l6.6,21.2H225L224.2,92.6z M223,88l-2-7.6l-1.9,7.6
			H223z"/>
		<path id="XMLID_121_" class="st4" d="M232.5,74.9h5.1l6.7,11.7V74.9h5.2v21.2h-5.2l-6.6-11.7v11.7h-5.1V74.9z"/>
		<path id="XMLID_123_" class="st4" d="M264.9,87.5l4.8,1.7c-0.3,1.6-0.8,3-1.5,4c-0.7,1.1-1.6,1.9-2.6,2.4c-1,0.6-2.3,0.8-3.9,0.8
			c-1.9,0-3.5-0.3-4.7-1c-1.2-0.7-2.3-1.8-3.2-3.5c-0.9-1.7-1.3-3.8-1.3-6.5c0-3.5,0.8-6.2,2.3-8.1c1.6-1.9,3.8-2.8,6.6-2.8
			c2.2,0,4,0.5,5.3,1.6c1.3,1.1,2.2,2.7,2.8,5l-4.8,1.3c-0.2-0.6-0.3-1.1-0.5-1.4c-0.3-0.5-0.7-0.9-1.1-1.2
			c-0.4-0.3-0.9-0.4-1.5-0.4c-1.2,0-2.2,0.6-2.8,1.8c-0.5,0.9-0.7,2.3-0.7,4.2c0,2.4,0.3,4,0.9,4.8c0.6,0.9,1.4,1.3,2.5,1.3
			c1,0,1.8-0.4,2.4-1.1C264.2,89.8,264.6,88.8,264.9,87.5z"/>
		<path id="XMLID_126_" class="st4" d="M272.3,74.9h5.5v7.4h6v-7.4h5.5v21.2h-5.5v-8.6h-6v8.6h-5.5V74.9z"/>
		<path id="XMLID_129_" class="st4" d="M293.1,74.9h5.5v21.2h-5.5V74.9z"/>
	</g>
	<path id="XMLID_101_" class="st5" d="M387.4,243.3l-6.2,3.1c-0.9,0.4-1.8,0.9-2.7,1.3c-0.9,0.4-1.8,0.9-2.7,1.3
		c-0.9,0.4-1.8,0.8-2.7,1.3c-0.9,0.4-1.8,0.8-2.7,1.2c-0.9,0.4-1.8,0.8-2.7,1.2c-0.9,0.4-1.8,0.8-2.7,1.2c-0.9,0.4-1.8,0.8-2.7,1.1
		c-0.9,0.4-1.8,0.7-2.7,1.1c-0.9,0.4-1.8,0.7-2.7,1.1c-0.9,0.3-1.8,0.7-2.7,1c-0.9,0.3-1.8,0.7-2.6,1c-0.9,0.3-1.8,0.6-2.6,1
		c-0.9,0.3-1.8,0.6-2.6,0.9c-0.9,0.3-1.8,0.6-2.6,0.9c-0.9,0.3-1.8,0.6-2.6,0.9c-0.9,0.3-1.7,0.6-2.6,0.8c-0.9,0.3-1.7,0.6-2.6,0.8
		c-0.9,0.3-1.7,0.5-2.6,0.8c-0.9,0.3-1.7,0.5-2.6,0.8c-0.9,0.3-1.7,0.5-2.6,0.7c-0.9,0.2-1.7,0.5-2.6,0.7c-0.9,0.2-1.7,0.5-2.6,0.7
		c-0.9,0.2-1.7,0.4-2.6,0.7c-0.9,0.2-1.7,0.4-2.6,0.6c-0.8,0.2-1.7,0.4-2.6,0.6c-0.8,0.2-1.7,0.4-2.6,0.6c-0.9,0.2-1.7,0.4-2.6,0.6
		c-0.9,0.2-1.7,0.4-2.6,0.5c-0.8,0.2-1.7,0.3-2.5,0.5c-0.8,0.2-1.7,0.3-2.5,0.5c-0.8,0.2-1.7,0.3-2.5,0.5c-0.8,0.1-1.7,0.3-2.5,0.4
		c-0.8,0.1-1.7,0.3-2.5,0.4c-0.8,0.1-1.7,0.3-2.5,0.4c-0.8,0.1-1.7,0.2-2.5,0.4c-0.8,0.1-1.7,0.2-2.5,0.3c-0.8,0.1-1.7,0.2-2.5,0.3
		c-0.8,0.1-1.7,0.2-2.5,0.3c-0.8,0.1-1.7,0.2-2.5,0.3c-0.8,0.1-1.7,0.2-2.5,0.3c-0.8,0.1-1.7,0.2-2.5,0.2c-0.8,0.1-1.7,0.1-2.5,0.2
		c-0.8,0.1-1.7,0.1-2.5,0.2c-0.8,0.1-1.7,0.1-2.5,0.2c-0.8,0.1-1.7,0.1-2.5,0.1c-0.8,0.1-1.7,0.1-2.5,0.1c-0.8,0-1.7,0.1-2.5,0.1
		c-0.8,0-1.7,0.1-2.5,0.1c-0.8,0-1.7,0.1-2.5,0.1c-0.8,0-1.7,0-2.5,0.1c-0.8,0-1.7,0-2.5,0s-1.7,0-2.5,0c-0.8,0-1.7,0-2.5,0
		s-1.7,0-2.5,0c-0.8,0-1.7,0-2.5-0.1c-0.8,0-1.7,0-2.5-0.1c-0.8,0-1.7-0.1-2.5-0.1c-0.8,0-1.7-0.1-2.5-0.1c-0.8,0-1.7-0.1-2.5-0.1
		c-0.8,0-1.7-0.1-2.5-0.1c-0.8-0.1-1.7-0.1-2.5-0.2c-0.8-0.1-1.7-0.1-2.5-0.2c-0.8-0.1-1.7-0.1-2.5-0.2c-0.8-0.1-1.7-0.2-2.5-0.2
		c-0.8-0.1-1.7-0.2-2.5-0.3c-0.8-0.1-1.7-0.2-2.5-0.3c-0.8-0.1-1.7-0.2-2.5-0.3c-0.8-0.1-1.7-0.2-2.5-0.3c-0.8-0.1-1.7-0.2-2.5-0.3
		c-0.8-0.1-1.7-0.2-2.5-0.4c-0.8-0.1-1.7-0.3-2.5-0.4c-0.8-0.1-1.7-0.3-2.5-0.4c-0.8-0.1-1.7-0.3-2.5-0.4c-0.8-0.1-1.7-0.3-2.5-0.5
		c-0.8-0.2-1.7-0.3-2.5-0.5c-0.8-0.2-1.7-0.3-2.5-0.5c-0.8-0.2-1.7-0.4-2.6-0.5c-0.8-0.2-1.7-0.4-2.6-0.6c-0.8-0.2-1.7-0.4-2.6-0.6
		c-0.9-0.2-1.7-0.4-2.6-0.6c-0.9-0.2-1.7-0.4-2.6-0.6c-0.9-0.2-1.7-0.4-2.6-0.7c-0.9-0.2-1.7-0.5-2.6-0.7c-0.9-0.2-1.7-0.5-2.6-0.7
		c-0.9-0.2-1.7-0.5-2.6-0.7c-0.9-0.2-1.7-0.5-2.6-0.8c-0.9-0.3-1.7-0.5-2.6-0.8c-0.9-0.3-1.7-0.5-2.6-0.8c-0.9-0.3-1.7-0.6-2.6-0.8
		c-0.9-0.3-1.7-0.6-2.6-0.9c-0.9-0.3-1.8-0.6-2.6-0.9c-0.9-0.3-1.8-0.6-2.6-0.9c-0.9-0.3-1.8-0.6-2.6-1c-0.9-0.3-1.8-0.7-2.6-1
		c-0.9-0.3-1.8-0.7-2.7-1c-0.9-0.3-1.8-0.7-2.7-1.1c-0.9-0.4-1.8-0.7-2.7-1.1c-0.9-0.4-1.8-0.7-2.7-1.1c-0.9-0.4-1.8-0.8-2.7-1.2
		c-0.9-0.4-1.8-0.8-2.7-1.2c-0.9-0.4-1.8-0.8-2.7-1.2c-0.9-0.4-1.8-0.8-2.7-1.3c-0.9-0.4-1.8-0.9-2.7-1.3c-0.9-0.4-1.8-0.9-2.7-1.3
		l-6.3-3.2l0,0.1c-13.8-6.7-28.6-15.5-32.6-17.9L90.8,203c0.8,0.6,1.7,1.2,2.5,1.7c1,0.7,1.9,1.3,2.9,2c1,0.6,1.9,1.3,2.9,1.9
		c1,0.6,1.9,1.2,2.9,1.8c1,0.6,1.9,1.2,2.9,1.8c1,0.6,1.9,1.2,2.9,1.7c1,0.6,1.9,1.1,2.9,1.7c1,0.6,1.9,1.1,2.9,1.6
		c1,0.5,1.9,1.1,2.9,1.6c1,0.5,1.9,1,2.9,1.5c1,0.5,1.9,1,2.9,1.5c1,0.5,1.9,1,2.9,1.4c1,0.5,1.9,0.9,2.9,1.4c1,0.5,1.9,0.9,2.8,1.4
		c1,0.4,1.9,0.9,2.8,1.3c0.9,0.4,1.9,0.9,2.8,1.3c0.9,0.4,1.9,0.8,2.8,1.2c0.9,0.4,1.9,0.8,2.8,1.2c0.9,0.4,1.9,0.8,2.8,1.1
		c0.9,0.4,1.9,0.7,2.8,1.1c0.9,0.4,1.9,0.7,2.8,1.1c0.9,0.3,1.9,0.7,2.8,1c0.9,0.3,1.9,0.7,2.8,1c0.9,0.3,1.9,0.6,2.8,1
		c0.9,0.3,1.8,0.6,2.8,0.9c0.9,0.3,1.8,0.6,2.8,0.9c0.9,0.3,1.8,0.6,2.8,0.8c0.9,0.3,1.8,0.6,2.8,0.8c0.9,0.3,1.8,0.5,2.7,0.8
		c0.9,0.3,1.8,0.5,2.7,0.7c0.9,0.2,1.8,0.5,2.7,0.7c0.9,0.2,1.8,0.5,2.7,0.7c0.9,0.2,1.8,0.4,2.7,0.7c0.9,0.2,1.8,0.4,2.7,0.6
		c0.9,0.2,1.8,0.4,2.7,0.6c0.9,0.2,1.8,0.4,2.7,0.6c0.9,0.2,1.8,0.4,2.7,0.5c0.9,0.2,1.8,0.3,2.7,0.5c0.9,0.2,1.8,0.3,2.7,0.5
		c0.9,0.2,1.8,0.3,2.7,0.4c0.9,0.1,1.8,0.3,2.7,0.4c0.9,0.1,1.8,0.3,2.7,0.4c0.9,0.1,1.8,0.3,2.7,0.4c0.9,0.1,1.8,0.2,2.7,0.3
		c0.9,0.1,1.8,0.2,2.6,0.3c0.9,0.1,1.8,0.2,2.6,0.3c0.9,0.1,1.8,0.2,2.6,0.3c0.9,0.1,1.8,0.2,2.6,0.2c0.9,0.1,1.8,0.1,2.6,0.2
		c0.9,0.1,1.8,0.1,2.6,0.2c0.9,0.1,1.8,0.1,2.6,0.2c0.9,0,1.8,0.1,2.6,0.1c0.9,0,1.8,0.1,2.6,0.1c0.9,0,1.8,0.1,2.6,0.1
		c0.9,0,1.8,0,2.6,0.1c0.9,0,1.8,0,2.6,0c0.9,0,1.8,0,2.6,0c0.9,0,1.8,0,2.6,0c0.9,0,1.8,0,2.6,0c0.9,0,1.7,0,2.6-0.1
		c0.9,0,1.8-0.1,2.6-0.1c0.9,0,1.8-0.1,2.6-0.1c0.9,0,1.8-0.1,2.6-0.1c0.9-0.1,1.8-0.1,2.6-0.2c0.9-0.1,1.8-0.1,2.6-0.2
		c0.9-0.1,1.8-0.1,2.6-0.2c0.9-0.1,1.8-0.2,2.6-0.2c0.9-0.1,1.8-0.2,2.6-0.3c0.9-0.1,1.8-0.2,2.6-0.3c0.9-0.1,1.8-0.2,2.7-0.3
		c0.9-0.1,1.8-0.2,2.7-0.3c0.9-0.1,1.8-0.2,2.7-0.4c0.9-0.1,1.8-0.3,2.7-0.4c0.9-0.1,1.8-0.3,2.7-0.4c0.9-0.1,1.8-0.3,2.7-0.4
		c0.9-0.2,1.8-0.3,2.7-0.5c0.9-0.2,1.8-0.3,2.7-0.5c0.9-0.2,1.8-0.4,2.7-0.5c0.9-0.2,1.8-0.4,2.7-0.6c0.9-0.2,1.8-0.4,2.7-0.6
		c0.9-0.2,1.8-0.4,2.7-0.6c0.9-0.2,1.8-0.4,2.7-0.7c0.9-0.2,1.8-0.5,2.7-0.7c0.9-0.2,1.8-0.5,2.7-0.7c0.9-0.2,1.8-0.5,2.7-0.7
		c0.9-0.3,1.8-0.5,2.7-0.8c0.9-0.3,1.8-0.5,2.8-0.8c0.9-0.3,1.8-0.6,2.8-0.8c0.9-0.3,1.8-0.6,2.8-0.9c0.9-0.3,1.8-0.6,2.8-0.9
		c0.9-0.3,1.8-0.6,2.8-1c0.9-0.3,1.9-0.7,2.8-1c0.9-0.3,1.9-0.7,2.8-1c0.9-0.4,1.9-0.7,2.8-1.1c0.9-0.4,1.9-0.7,2.8-1.1
		c0.9-0.4,1.9-0.8,2.8-1.1c0.9-0.4,1.9-0.8,2.8-1.2c0.9-0.4,1.9-0.8,2.8-1.2c0.9-0.4,1.9-0.8,2.8-1.3c1-0.4,1.9-0.9,2.8-1.3
		c0.9-0.4,1.9-0.9,2.8-1.4c1-0.5,1.9-0.9,2.9-1.4c1-0.5,1.9-1,2.9-1.4c1-0.5,1.9-1,2.9-1.5c1-0.5,1.9-1,2.9-1.5c1-0.5,1.9-1,2.9-1.6
		c1-0.5,1.9-1.1,2.9-1.6c1-0.6,1.9-1.1,2.9-1.7c1-0.6,1.9-1.1,2.9-1.7c1-0.6,1.9-1.2,2.9-1.8c1-0.6,1.9-1.2,2.9-1.8
		c1-0.6,1.9-1.3,2.9-1.9c1-0.6,1.9-1.3,2.9-2c0.8-0.6,1.6-1.1,2.4-1.7l16.3,22.5c-3.3,2-18.4,11.1-32.5,17.9L387.4,243.3z M79,252
		c-0.8,1.7,0.3,7,14.2,13.6c4-7.1,7.7-12.9,10-16.4c-1.2-0.6-8.3-4.3-16.1-8.5L79,252z M72.7,256.1c-1.4-4,0.4-6.7,0.6-6.9l8.3-11.5
		c-4.1-2.3-8.1-4.7-11-6.7l-19.7,27.2c0.2,3.5,1.6,12.6,11,17.9c6.6,3.7,12,5.5,16.2,5.5c3.1,0,7.2-0.9,11-8.2
		c0.4-0.8,0.9-1.7,1.3-2.5C80.4,266.2,74.4,261.2,72.7,256.1z M417.5,252l-8.6-12c-7.8,4.3-15.4,8.3-17.5,9.3
		c2.4,3.7,6.2,9.7,10.3,17C417.1,259.5,418.4,253.8,417.5,252z M424.1,231.1c-2.6,1.7-6,3.8-9.6,5.9l8.8,12.2
		c0.2,0.3,1.9,2.9,0.6,6.9c-1.8,5.4-8.3,10.6-19.3,15.5c0.3,0.6,0.6,1.2,0.9,1.8c3.8,7.3,7.9,8.2,11,8.2c4.1,0,9.6-1.9,16.2-5.5
		c9.5-5.3,10.9-14.4,11-17.9L424.1,231.1z"/>
	<g id="XMLID_67_">
		<g id="XMLID_68_">
			<path id="XMLID_99_" class="st3" d="M98.3,213.1c0.8,0.5,1.5,1,2.1,1.4c0.6,0.4,1.2,0.8,1.9,1.2c0.6,0.4,1.3,0.8,2.2,1.3
				c-0.3,1-0.6,1.9-0.8,2.8c-0.2,0.9-0.5,1.6-0.7,2.4c-0.2,0.8-0.4,1.5-0.6,2.3c-0.2,0.8-0.4,1.6-0.7,2.4c-0.2,0.9-0.5,1.8-0.7,2.8
				c1-0.6,1.9-1.1,2.7-1.7c0.8-0.5,1.6-1,2.3-1.4c0.7-0.5,1.5-0.9,2.2-1.4c0.7-0.5,1.5-0.9,2.3-1.5c0.8-0.5,1.7-1.1,2.6-1.7
				c0.8,0.5,1.5,0.8,2.2,1.2c0.6,0.4,1.2,0.7,1.9,1c0.6,0.3,1.3,0.7,2.2,1.1c-0.9,0.5-1.7,1-2.5,1.5c-0.8,0.5-1.5,0.9-2.3,1.3
				c-0.7,0.4-1.4,0.8-2.1,1.2c-0.7,0.4-1.4,0.8-2,1.2c-0.7,0.4-1.4,0.8-2.1,1.2c-0.7,0.4-1.4,0.8-2.1,1.2c-0.7,0.4-1.5,0.8-2.3,1.3
				c-0.8,0.4-1.7,0.9-2.6,1.4c-0.9-0.5-1.7-1-2.5-1.4c-0.7-0.4-1.4-0.8-2.1-1.2c-0.7-0.4-1.5-0.9-2.4-1.4c0.2-0.9,0.3-1.8,0.5-2.6
				c0.2-0.8,0.3-1.6,0.5-2.4c0.2-0.8,0.3-1.5,0.5-2.2c0.1-0.7,0.3-1.4,0.4-2.1c0.2-0.7,0.3-1.4,0.5-2.1c0.2-0.7,0.3-1.4,0.5-2.2
				c0.2-0.7,0.4-1.5,0.6-2.3C97.9,214.9,98.1,214,98.3,213.1z"/>
			<path id="XMLID_97_" class="st3" d="M121.6,226.6c0.8,0.4,1.5,0.8,2.2,1.1c0.6,0.3,1.2,0.6,1.9,0.9c0.6,0.3,1.3,0.7,2.2,1.1
				c-0.5,0.8-1,1.6-1.5,2.4c-0.5,0.7-0.9,1.5-1.4,2.1c-0.4,0.7-0.8,1.3-1.3,2c-0.4,0.6-0.8,1.3-1.2,1.9c-0.4,0.6-0.8,1.3-1.3,2
				c-0.4,0.7-0.9,1.4-1.4,2.1c-0.5,0.7-1,1.5-1.5,2.4c-0.9-0.4-1.6-0.8-2.3-1.1c-0.7-0.3-1.3-0.7-2-1c-0.7-0.4-1.4-0.7-2.3-1.2
				c0.6-0.8,1.1-1.6,1.6-2.4c0.5-0.7,1-1.4,1.4-2.1c0.4-0.7,0.9-1.3,1.3-1.9c0.4-0.6,0.9-1.3,1.3-1.9c0.4-0.6,0.9-1.3,1.3-1.9
				c0.5-0.7,0.9-1.4,1.4-2.1C120.5,228.2,121,227.4,121.6,226.6z"/>
			<path id="XMLID_94_" class="st3" d="M123.3,246.8c0.5-0.9,1-1.7,1.5-2.4c0.5-0.8,0.9-1.5,1.3-2.2c0.4-0.7,0.8-1.3,1.2-2
				c0.4-0.7,0.8-1.3,1.2-1.9c0.4-0.6,0.8-1.3,1.2-2c0.4-0.7,0.8-1.4,1.3-2.2c0.5-0.8,0.9-1.6,1.5-2.4c1,0.5,2,0.9,2.8,1.3
				c0.9,0.4,1.7,0.7,2.5,1.1c0.8,0.3,1.6,0.7,2.5,1c0.9,0.4,1.8,0.7,2.9,1.2c1,0.4,1.9,0.8,2.6,1.1c0.7,0.4,1.3,0.7,1.8,1
				c0.5,0.3,0.9,0.7,1.2,1.1c0.3,0.4,0.5,0.8,0.7,1.3c0.2,0.5,0.2,0.9,0.2,1.4c0,0.5-0.2,1-0.4,1.5c-0.4,0.9-1,1.5-1.9,2
				c-0.4,0.2-0.9,0.4-1.3,0.5c-0.5,0.1-1,0.2-1.5,0.2c-0.7,0-2.7-0.3-2.7-0.3c0,0,1.2,0.9,1.5,1.2c0.2,0.2,0.4,0.6,0.7,1.2
				c0.3,0.6,0.4,1,0.5,1.3c0.1,0.8,0.3,1.4,0.4,2c0.1,0.6,0.2,1.2,0.3,1.8s0.3,1.2,0.4,2c-1.1-0.4-1.9-0.7-2.8-1
				c-0.8-0.3-1.6-0.6-2.4-0.9c-0.8-0.3-1.7-0.7-2.7-1.1c-0.2-0.8-0.3-1.5-0.4-2.1c-0.1-0.6-0.2-1.2-0.3-1.9
				c-0.1-0.6-0.2-1.3-0.4-2.2c-0.1-0.8-0.3-1.4-0.6-1.7c-0.3-0.4-0.8-0.8-1.4-1c-0.2-0.1-0.4-0.1-0.6-0.3c-0.5,0.8-0.9,1.5-1.2,2.2
				c-0.4,0.6-0.7,1.2-1.1,1.9c-0.4,0.6-0.8,1.3-1.2,2.2c-0.9-0.4-1.7-0.7-2.4-1c-0.7-0.3-1.4-0.6-2.1-0.9
				C125,247.6,124.2,247.2,123.3,246.8z M135.3,240.8c0.6,0.2,1,0.4,1.4,0.6c0.4,0.2,0.8,0.3,1.4,0.6c0.3,0.1,0.9,0.3,1.9,0.5
				c0.5,0.1,0.9,0.1,1.3-0.1c0.4-0.1,0.7-0.4,0.9-0.7c0.3-0.5,0.3-1,0-1.4c-0.3-0.4-1-0.9-2.2-1.4c-0.6-0.2-1-0.4-1.4-0.6
				c-0.4-0.2-0.9-0.4-1.4-0.6c-0.4,0.6-0.6,1.1-0.9,1.5C135.9,239.7,135.6,240.1,135.3,240.8z"/>
			<path id="XMLID_92_" class="st3" d="M153.2,240.2c1,0.3,1.9,0.7,2.8,1c0.9,0.3,1.7,0.6,2.5,0.9c0.8,0.3,1.6,0.5,2.4,0.8
				c0.8,0.3,1.5,0.5,2.3,0.7c0.8,0.2,1.5,0.5,2.3,0.7c0.8,0.2,1.6,0.5,2.4,0.7c0.8,0.2,1.7,0.5,2.6,0.7c0.9,0.3,1.9,0.5,2.9,0.8
				c-0.3,0.8-0.5,1.4-0.7,2c-0.2,0.6-0.4,1.2-0.7,2c-0.9-0.3-1.7-0.5-2.4-0.7s-1.4-0.4-2.1-0.6c-0.7-0.2-1.5-0.4-2.4-0.7
				c-0.4,1-0.7,1.8-1.1,2.6c-0.3,0.8-0.6,1.6-0.9,2.3c-0.3,0.7-0.6,1.4-0.9,2.2c-0.3,0.7-0.6,1.5-0.9,2.3c-0.3,0.8-0.7,1.7-1.1,2.6
				c-1-0.3-1.7-0.5-2.5-0.8c-0.7-0.2-1.4-0.4-2.2-0.7c-0.7-0.2-1.5-0.5-2.5-0.8c0.4-1,0.8-1.8,1.2-2.6c0.4-0.8,0.7-1.5,1-2.3
				c0.3-0.7,0.6-1.4,1-2.2c0.3-0.7,0.6-1.5,1-2.3c0.4-0.8,0.7-1.7,1.2-2.6c-0.9-0.3-1.7-0.6-2.4-0.8c-0.7-0.2-1.4-0.5-2.1-0.7
				c-0.7-0.2-1.5-0.5-2.4-0.8c0.4-0.8,0.6-1.4,0.9-1.9C152.5,241.5,152.8,241,153.2,240.2z"/>
			<path id="XMLID_90_" class="st3" d="M190.5,250.6c0.9,0.2,1.7,0.3,2.4,0.5c0.7,0.1,1.4,0.3,2.1,0.4c0.7,0.1,1.5,0.3,2.4,0.4
				c-0.2,1-0.5,1.9-0.7,2.7c-0.2,0.8-0.4,1.5-0.6,2.3c-0.2,0.7-0.4,1.5-0.6,2.3c-0.2,0.8-0.4,1.7-0.6,2.7c-0.1,0.5-0.3,1-0.5,1.4
				c-0.2,0.4-0.5,0.9-0.8,1.3c-0.3,0.4-0.7,0.7-1.1,1.1c-0.4,0.3-0.9,0.6-1.5,0.8c-0.5,0.2-1.1,0.4-1.6,0.6
				c-0.5,0.1-1.1,0.2-1.6,0.2c-0.8,0-1.6,0-2.5-0.1c-0.9-0.1-1.8-0.2-2.8-0.5c-0.6-0.1-1.2-0.3-1.8-0.4c-0.6-0.2-1.3-0.4-1.9-0.6
				c-0.7-0.2-1.3-0.4-1.8-0.7c-0.5-0.2-1-0.5-1.4-0.8c-0.4-0.3-0.8-0.6-1.1-0.9c-0.3-0.3-0.6-0.7-0.9-1.1c-0.5-0.8-0.8-1.5-0.9-2.3
				c0-0.6,0-1.1,0-1.6c0.1-0.5,0.1-0.9,0.3-1.3c0.3-1,0.6-1.8,0.9-2.6c0.3-0.8,0.5-1.5,0.8-2.2c0.3-0.7,0.5-1.5,0.8-2.2
				c0.3-0.8,0.6-1.6,0.9-2.6c0.9,0.2,1.6,0.4,2.3,0.6c0.7,0.2,1.3,0.3,2,0.5c0.7,0.2,1.4,0.3,2.3,0.6c-0.3,1-0.6,1.9-0.8,2.7
				c-0.3,0.8-0.5,1.6-0.7,2.3c-0.2,0.8-0.5,1.5-0.7,2.3c-0.3,0.8-0.5,1.7-0.8,2.7c-0.3,0.9-0.2,1.7,0.4,2.3c0.3,0.3,0.6,0.6,1.1,0.9
				c0.4,0.2,1,0.4,1.6,0.6c0.6,0.1,1.2,0.2,1.7,0.2c0.5,0,1-0.1,1.4-0.3c0.8-0.4,1.4-1,1.6-1.9c0.3-1,0.5-1.9,0.8-2.7
				c0.2-0.8,0.4-1.6,0.6-2.3c0.2-0.8,0.4-1.5,0.6-2.3C189.9,252.5,190.2,251.6,190.5,250.6z"/>
			<path id="XMLID_88_" class="st3" d="M198,263.7c0.9,0.1,1.7,0.2,2.4,0.3c0.7,0.1,1.4,0.2,2.1,0.2c0.7,0.1,1.5,0.2,2.4,0.3
				c0,0.8,0.2,1.5,0.6,2c0.3,0.4,0.7,0.7,1.2,1c0.5,0.2,1.1,0.4,1.8,0.5c1,0.1,1.9,0.1,2.5-0.2c0.6-0.3,1-0.6,1-1.1
				c0.1-0.4-0.1-0.9-0.6-1.3c-0.2-0.2-0.7-0.4-1.2-0.7s-1.4-0.5-2.3-0.8c-1-0.3-1.9-0.6-2.7-1c-0.8-0.3-1.5-0.7-2.1-1
				c-0.6-0.3-1.1-0.7-1.5-1c-0.6-0.5-1-1.1-1.2-1.7c-0.2-0.6-0.2-1.2-0.1-1.9c0.1-0.4,0.3-0.8,0.5-1.2c0.3-0.4,0.6-0.7,1-1.1
				c0.4-0.3,0.9-0.6,1.5-0.8c0.6-0.2,1.2-0.4,1.9-0.5c0.7-0.1,1.5-0.2,2.5-0.1c0.9,0,2,0.1,3.1,0.3c0.9,0.1,1.8,0.3,2.6,0.5
				c0.8,0.2,1.5,0.4,2.1,0.7c0.6,0.3,1.2,0.5,1.6,0.9c0.7,0.5,1.2,1.1,1.6,1.7c0.4,0.7,0.6,1.5,0.6,2.4c-0.9,0-1.6-0.1-2.3-0.1
				c-0.7,0-1.3-0.1-2-0.1c-0.7,0-1.4-0.1-2.3-0.2c-0.1-0.8-0.3-1.4-0.8-1.8c-0.5-0.4-1.2-0.7-2.2-0.8c-0.8-0.1-1.4-0.1-1.9,0.1
				c-0.5,0.2-0.7,0.5-0.8,0.8c-0.1,0.3,0.1,0.5,0.4,0.8c0.3,0.3,1,0.6,2.2,0.9c1,0.3,1.9,0.6,2.7,0.8c0.8,0.3,1.5,0.5,2.1,0.8
				c0.6,0.2,1.1,0.5,1.6,0.7c0.6,0.3,1.2,0.7,1.6,1c0.4,0.4,0.8,0.7,1.1,1.1c0.3,0.4,0.4,0.8,0.5,1.3c0.1,0.4,0.1,0.9,0.1,1.3
				c-0.1,0.5-0.2,1.1-0.5,1.5c-0.3,0.5-0.7,0.9-1.1,1.3c-0.5,0.4-1,0.8-1.7,1c-0.6,0.3-1.4,0.5-2.2,0.6c-0.8,0.1-1.7,0.2-2.7,0.2
				c-1,0-2.1-0.1-3.2-0.2c-1.4-0.2-2.6-0.4-3.6-0.7c-1.1-0.3-2-0.6-2.7-1c-0.7-0.4-1.3-0.8-1.8-1.2c-0.7-0.7-1.1-1.4-1.4-2.2
				C198,265.4,197.9,264.6,198,263.7z"/>
			<path id="XMLID_86_" class="st3" d="M234.6,256.3c1.1,0.1,2,0.1,3,0.1c0.9,0,1.8,0.1,2.7,0.1c0.8,0,1.7,0,2.5,0.1
				c0.8,0,1.6,0,2.4,0c0.8,0,1.6,0,2.5,0c0.8,0,1.7,0,2.7,0c0.9,0,1.9,0,3,0c0,0.7,0,1.3,0,1.8c0,0.5,0,1.1,0,1.8
				c-1.2,0-2.2,0-3.2,0c-1,0-1.8,0-2.7,0c-0.9,0-1.8,0-2.7,0c-1,0-2,0-3.2-0.1c0,0.5,0,1,0,1.4c0,0.4,0,0.8,0,1.3
				c1.1,0,2.1,0.1,3,0.1c0.9,0,1.7,0,2.6,0c0.8,0,1.7,0,2.6,0c0.9,0,1.9,0,3,0c0,0.7,0,1.2,0,1.7c0,0.5,0,1,0,1.7c-1.1,0-2.1,0-3,0
				c-0.9,0-1.8,0-2.6,0c-0.8,0-1.7,0-2.6,0c-0.9,0-1.9,0-3-0.1c0,0.7,0,1.2-0.1,1.7c0,0.5,0,1-0.1,1.7c1,0,1.9,0,2.8,0.1
				c0.8,0,1.6,0,2.4,0c0.8,0,1.5,0,2.3,0c0.8,0,1.6,0,2.4,0c0.8,0,1.8,0,2.8,0c0,0.8,0,1.3,0,1.9c0,0.6,0,1.1,0,1.9
				c-1.2,0-2.2,0-3.3,0c-1,0-2,0-2.9,0c-0.9,0-1.8,0-2.7,0c-0.9,0-1.7,0-2.6,0c-0.9,0-1.8,0-2.7-0.1c-0.9,0-1.9-0.1-2.9-0.1
				c-1,0-2.1-0.1-3.3-0.1c0.1-1,0.1-1.9,0.2-2.7c0.1-0.9,0.1-1.7,0.2-2.4c0-0.8,0.1-1.5,0.1-2.2c0-0.7,0.1-1.5,0.1-2.2
				c0.1-0.7,0.1-1.5,0.1-2.2c0.1-0.8,0.1-1.6,0.2-2.4C234.5,258.1,234.6,257.2,234.6,256.3z"/>
			<path id="XMLID_84_" class="st3" d="M255.7,256.6c1.2,0,2.3-0.1,3.4-0.1c1.1,0,2-0.1,3-0.1c1,0,1.9-0.1,2.8-0.1
				c0.9-0.1,1.8-0.1,2.7-0.2c0.9-0.1,1.8-0.1,2.8-0.2c1-0.1,1.9-0.1,3-0.2c1.1-0.1,2.2-0.2,3.4-0.3c0.1,0.8,0.2,1.5,0.3,2.1
				c0.1,0.6,0.2,1.2,0.3,2.1c-1,0.1-1.8,0.2-2.5,0.2c-0.7,0.1-1.4,0.1-2.2,0.2c-0.7,0.1-1.5,0.1-2.5,0.2c0.1,1,0.2,1.9,0.3,2.8
				c0.1,0.9,0.2,1.7,0.2,2.4c0.1,0.8,0.1,1.5,0.2,2.3c0.1,0.8,0.1,1.6,0.2,2.4c0.1,0.9,0.2,1.8,0.3,2.8c-1,0.1-1.8,0.1-2.6,0.2
				s-1.5,0.1-2.3,0.1c-0.8,0-1.6,0.1-2.6,0.1c-0.1-1-0.1-1.9-0.2-2.8c-0.1-0.9-0.1-1.7-0.2-2.4c0-0.8-0.1-1.5-0.1-2.3
				c-0.1-0.8-0.1-1.6-0.2-2.4c-0.1-0.9-0.1-1.8-0.2-2.8c-1,0-1.8,0.1-2.5,0.1c-0.7,0-1.4,0.1-2.2,0.1c-0.7,0-1.5,0-2.5,0.1
				c0-0.8,0-1.5-0.1-2.1C255.7,258,255.7,257.4,255.7,256.6z"/>
			<path id="XMLID_82_" class="st3" d="M290.2,253.7c0.9-0.1,1.7-0.2,2.4-0.3c0.7-0.1,1.4-0.2,2.1-0.3c0.7-0.1,1.5-0.2,2.4-0.4
				c0.2,1,0.4,1.9,0.6,2.8c0.2,0.8,0.4,1.6,0.5,2.4c0.2,0.8,0.3,1.5,0.5,2.3c0.2,0.8,0.3,1.5,0.5,2.4c0.2,0.8,0.4,1.7,0.6,2.8
				c1.1-0.2,2.1-0.4,3-0.5c0.9-0.2,1.8-0.3,2.6-0.5c0.8-0.2,1.7-0.3,2.6-0.5c0.9-0.2,1.9-0.4,3-0.6c0.2,0.8,0.4,1.4,0.6,2
				c0.2,0.6,0.3,1.2,0.6,2c-1.1,0.2-2.1,0.4-3,0.6c-0.9,0.2-1.8,0.4-2.7,0.5c-0.9,0.2-1.7,0.3-2.5,0.5c-0.8,0.1-1.6,0.3-2.4,0.4
				c-0.8,0.1-1.6,0.3-2.5,0.4s-1.8,0.3-2.7,0.4c-0.9,0.1-2,0.3-3,0.4c-0.2-1-0.4-1.8-0.5-2.7c-0.2-0.8-0.3-1.6-0.5-2.4
				c-0.1-0.8-0.3-1.5-0.4-2.2c-0.1-0.7-0.3-1.4-0.4-2.2c-0.1-0.7-0.3-1.5-0.4-2.2c-0.1-0.8-0.3-1.6-0.5-2.4
				C290.6,255.6,290.4,254.7,290.2,253.7z"/>
			<path id="XMLID_79_" class="st3" d="M329,260.3c-1.1,0.3-2,0.5-2.8,0.7s-1.6,0.4-2.5,0.6c-0.8,0.2-1.7,0.4-2.8,0.7
				c-0.1,0.6-0.1,1-0.1,1.5c0,0.4-0.1,0.9-0.1,1.5c-1,0.2-1.8,0.4-2.6,0.6c-0.8,0.2-1.5,0.3-2.3,0.5c-0.8,0.2-1.6,0.3-2.6,0.6
				c0.2-0.9,0.4-1.8,0.6-2.6c0.2-0.8,0.4-1.6,0.5-2.3c0.2-0.7,0.3-1.5,0.4-2.2c0.1-0.7,0.3-1.4,0.4-2.1c0.1-0.7,0.3-1.4,0.4-2.1
				c0.1-0.7,0.3-1.4,0.4-2.2c0.1-0.7,0.3-1.5,0.4-2.3c0.1-0.8,0.3-1.7,0.4-2.6c1-0.2,1.8-0.4,2.5-0.6c0.8-0.2,1.5-0.4,2.2-0.6
				c0.8-0.2,1.6-0.4,2.5-0.7c0.7,0.7,1.4,1.4,2,2c0.6,0.6,1.2,1.2,1.8,1.8c0.6,0.6,1.1,1.1,1.7,1.6c0.6,0.5,1.1,1,1.6,1.6
				c0.6,0.5,1.1,1,1.7,1.5c0.6,0.5,1.1,1.1,1.7,1.6c0.6,0.6,1.2,1.1,1.9,1.7s1.4,1.2,2.1,1.9c-1,0.3-1.8,0.5-2.6,0.8
				c-0.8,0.2-1.5,0.4-2.3,0.7c-0.8,0.2-1.6,0.5-2.6,0.7c-0.4-0.5-0.7-0.8-1.1-1.2C329.8,261.1,329.5,260.7,329,260.3z M326.3,257.1
				c-0.6-0.7-1.1-1.3-1.6-1.8c-0.5-0.5-0.9-1-1.4-1.6c-0.5-0.5-1-1.1-1.5-1.8c-0.1,0.9-0.1,1.6-0.2,2.3c0,0.7-0.1,1.3-0.1,2
				c0,0.7-0.1,1.4-0.2,2.3c1-0.2,1.7-0.4,2.5-0.6C324.6,257.6,325.3,257.4,326.3,257.1z"/>
			<path id="XMLID_75_" class="st3" d="M334.3,243.8c1-0.3,1.9-0.6,2.7-0.9c0.8-0.3,1.6-0.5,2.3-0.8c0.7-0.2,1.5-0.5,2.2-0.8
				c0.7-0.3,1.5-0.5,2.3-0.8c0.8-0.3,1.7-0.6,2.7-1c1-0.4,1.9-0.6,2.8-0.7c0.9-0.1,1.7-0.1,2.4,0.1c0.7,0.2,1.4,0.4,1.9,0.8
				c0.5,0.4,0.9,0.8,1.2,1.3c0.2,0.5,0.4,0.9,0.4,1.4c0,0.5-0.1,0.9-0.3,1.4c-0.3,0.6-1.8,1.9-1.8,1.9c0,0,1.6-0.2,2.3-0.2
				c0.7,0,1.3,0.1,1.8,0.3c0.5,0.2,1,0.4,1.4,0.8c0.4,0.3,0.7,0.8,1,1.2c0.4,0.8,0.5,1.6,0.3,2.5c-0.1,0.4-0.3,0.8-0.5,1.2
				c-0.2,0.4-0.5,0.8-0.9,1.1c-0.5,0.5-1.3,1-2.4,1.5c-0.7,0.4-1.4,0.7-1.9,0.9c-0.5,0.2-0.9,0.4-1.1,0.5c-1,0.3-1.8,0.7-2.7,0.9
				c-0.8,0.3-1.6,0.6-2.3,0.8c-0.7,0.3-1.5,0.5-2.2,0.7c-0.7,0.3-1.5,0.5-2.3,0.8c-0.8,0.3-1.7,0.6-2.7,0.9
				c-0.4-0.9-0.7-1.8-1.1-2.6c-0.3-0.8-0.6-1.6-1-2.3c-0.3-0.7-0.6-1.4-0.9-2.1c-0.3-0.7-0.6-1.4-0.9-2.1c-0.3-0.7-0.6-1.4-0.9-2.1
				c-0.3-0.7-0.6-1.5-1-2.3C335,245.5,334.7,244.7,334.3,243.8z M343.8,247.8c0.6-0.2,1-0.4,1.5-0.5c0.4-0.2,0.9-0.3,1.5-0.5
				c1-0.4,1.7-0.8,2-1.2c0.3-0.4,0.3-0.9,0.1-1.3c-0.2-0.5-0.6-0.7-1.1-0.8c-0.5-0.1-1.3,0-2.3,0.4c-0.6,0.2-1,0.4-1.5,0.5
				c-0.4,0.2-0.9,0.3-1.5,0.5c0.3,0.6,0.5,1,0.7,1.5C343.3,246.8,343.5,247.2,343.8,247.8z M346.6,254c0.7-0.2,1.2-0.4,1.8-0.6
				c0.5-0.2,1.1-0.4,1.8-0.6c1.2-0.4,2-0.9,2.3-1.4c0.3-0.5,0.4-1,0.1-1.5c-0.2-0.5-0.7-0.7-1.3-0.8c-0.6-0.1-1.5,0.1-2.7,0.5
				c-0.7,0.2-1.2,0.4-1.7,0.6c-0.5,0.2-1,0.4-1.7,0.6c0.3,0.6,0.5,1.1,0.7,1.6C346.1,252.9,346.3,253.4,346.6,254z"/>
			<path id="XMLID_72_" class="st3" d="M360.6,243.5c-0.5-0.8-0.8-1.7-0.9-2.5c-0.2-0.8-0.2-1.6-0.1-2.3c0.1-0.8,0.3-1.5,0.7-2.2
				c0.3-0.6,0.6-1.1,1-1.6c0.4-0.5,0.9-1,1.4-1.4c0.6-0.5,1.2-0.9,1.9-1.3c0.7-0.4,1.4-0.8,2.3-1.2c0.8-0.4,1.7-0.7,2.5-1
				c0.8-0.3,1.6-0.5,2.3-0.6c0.8-0.1,1.5-0.2,2.2-0.3c0.7,0,1.4,0,2.1,0.1c0.9,0.1,1.7,0.4,2.5,0.7c0.8,0.3,1.5,0.8,2.2,1.4
				c0.7,0.6,1.3,1.2,1.8,2c0.6,0.8,1,1.7,1.3,2.5c0.3,0.8,0.4,1.6,0.3,2.4c0,0.8-0.2,1.5-0.6,2.2c-0.3,0.7-0.8,1.5-1.4,2.2
				c-0.4,0.5-0.9,0.9-1.4,1.4c-0.5,0.4-1.1,0.9-1.8,1.3c-0.7,0.4-1.4,0.8-2.2,1.2c-0.8,0.4-1.6,0.7-2.4,1c-0.8,0.3-1.5,0.5-2.2,0.6
				c-0.7,0.2-1.4,0.3-2,0.3c-1,0.1-1.9,0-2.8-0.1c-0.9-0.2-1.8-0.4-2.6-0.8c-0.6-0.3-1.1-0.6-1.5-0.9c-0.5-0.4-0.9-0.8-1.3-1.3
				C361.3,244.7,360.9,244.1,360.6,243.5z M367.2,240.8c0.4,0.8,0.9,1.4,1.5,1.8c0.5,0.5,1.1,0.8,1.7,0.9c0.6,0.2,1.2,0.2,1.9,0.1
				c0.7-0.1,1.3-0.3,2-0.6c0.7-0.3,1.3-0.7,1.8-1.1c0.5-0.4,0.8-0.9,1-1.4c0.2-0.5,0.2-1.1,0-1.8c-0.2-0.7-0.5-1.4-1.1-2.2
				c-0.4-0.7-0.9-1.3-1.5-1.7c-0.5-0.4-1.1-0.7-1.7-0.8c-0.6-0.1-1.2-0.2-1.8-0.1c-0.6,0.1-1.3,0.3-2,0.6c-0.6,0.3-1.2,0.6-1.6,1
				c-0.4,0.4-0.7,0.9-0.9,1.4c-0.2,0.5-0.2,1.1-0.1,1.7C366.5,239.3,366.8,240,367.2,240.8z"/>
			<path id="XMLID_69_" class="st3" d="M391.2,238.8c-0.6-0.8-1.1-1.6-1.7-2.3c-0.5-0.7-1-1.4-1.5-2.1c-0.5-0.7-0.9-1.3-1.4-1.9
				c-0.4-0.6-0.9-1.2-1.3-1.9c-0.4-0.6-0.9-1.3-1.4-1.9c-0.5-0.7-1-1.3-1.5-2.1c-0.5-0.7-1.1-1.5-1.7-2.3c1-0.5,1.9-1,2.7-1.5
				c0.8-0.4,1.6-0.9,2.3-1.3c0.8-0.4,1.5-0.9,2.3-1.3c0.8-0.5,1.7-1,2.7-1.6c0.9-0.5,1.8-1,2.5-1.4c0.7-0.4,1.4-0.6,2-0.8
				c0.6-0.2,1.1-0.3,1.7-0.3c0.6,0,1.1,0,1.7,0.1c0.6,0.1,1.1,0.3,1.5,0.6c0.5,0.3,0.9,0.6,1.3,1.1c0.6,0.8,1,1.6,1,2.4
				c0,0.4-0.1,0.8-0.2,1.3c-0.1,0.4-0.3,0.9-0.6,1.3c-0.3,0.6-1.7,1.9-1.7,1.9c0,0,1.5-0.4,2-0.5c0.3,0,0.9,0,1.6,0.1
				c0.7,0.1,1.3,0.2,1.6,0.3c0.8,0.3,1.6,0.5,2.2,0.7c0.7,0.2,1.3,0.4,1.9,0.6c0.7,0.2,1.4,0.4,2.2,0.7c-0.9,0.6-1.7,1.1-2.5,1.6
				c-0.7,0.5-1.4,0.9-2.2,1.4c-0.7,0.5-1.5,1-2.5,1.5c-0.9-0.3-1.7-0.5-2.4-0.8c-0.7-0.2-1.4-0.4-2.1-0.7c-0.7-0.2-1.5-0.5-2.4-0.8
				c-0.9-0.3-1.5-0.5-2-0.4c-0.6,0-1.2,0.2-1.8,0.6c-0.2,0.1-0.3,0.2-0.6,0.3c0.6,0.8,1.1,1.4,1.5,2c0.4,0.6,0.9,1.1,1.3,1.7
				c0.5,0.6,0.9,1.2,1.5,2c-0.9,0.5-1.6,0.9-2.3,1.3c-0.7,0.4-1.3,0.7-2,1.1C392.8,238,392,238.3,391.2,238.8z M391.3,226.7
				c0.5-0.3,0.9-0.5,1.3-0.7c0.4-0.2,0.8-0.5,1.3-0.8c0.3-0.2,0.8-0.6,1.5-1.2c0.4-0.3,0.6-0.6,0.6-1c0.1-0.4,0-0.7-0.3-1
				c-0.4-0.5-0.8-0.7-1.4-0.7c-0.6,0-1.4,0.3-2.6,1c-0.5,0.3-0.9,0.5-1.3,0.8c-0.4,0.2-0.8,0.5-1.3,0.8c0.4,0.6,0.8,1,1.1,1.4
				C390.6,225.7,390.9,226.2,391.3,226.7z"/>
		</g>
	</g>
	<polygon id="XMLID_66_" class="st0" points="356.2,186 342.9,186 352.3,176.7 342.8,167.1 333.4,176.5 333.4,163.2 319.9,163.2 
		319.9,176.5 310.6,167.1 301,176.7 310.4,186 297.1,186 297.1,199.5 310.4,199.5 301,208.9 310.6,218.4 319.9,209 319.9,222.3 
		333.4,222.3 333.4,209 342.8,218.4 352.3,208.9 342.9,199.5 356.2,199.5 	"/>
	<circle id="XMLID_65_" class="st6" cx="327" cy="193.5" r="22"/>
	<rect id="XMLID_64_" x="323.3" y="176.4" class="st0" width="7" height="36.4"/>
	<rect id="XMLID_63_" x="311.4" y="186.5" class="st0" width="29.7" height="7.3"/>
	<path id="XMLID_62_" class="st7" d="M224.4,237.7c0,0,3.3-10,3.6-20c0.3-10-3.3-11.8-3.3-11.8l-23.9,26.7c0,0,6.7-22.1,27-36
		C227.7,196.5,239.1,218.6,224.4,237.7z"/>
	<path id="XMLID_61_" class="st7" d="M224.4,237.7c0,0,6.7-16.1,18.2-24.8c11.5-8.8,13-6.1,13.3-0.6c0.3,5.5-3.6,28.8-3.6,28.8
		s1.8-22.7-1.2-25.4C248,212.9,224.4,237.7,224.4,237.7z"/>
	<path id="XMLID_60_" class="st7" d="M267.1,227.1c0,0-2.4-30.3-7.9-30.6c-5.5-0.3-29.1,31.8-29.1,31.8s17.9-33.9,31.2-40.9
		C261.3,187.5,273.6,202.7,267.1,227.1z"/>
	<path id="XMLID_59_" class="st7" d="M277.1,206.5c0,0-0.9-24.5-3.3-26.7c-2.4-2.1-12.4,7.6-12.4,7.6s10.9-12.4,14.8-13.6
		C280.1,172.6,282.8,191.7,277.1,206.5z"/>
	<path id="XMLID_58_" class="st7" d="M239.2,214.1c0,0,0-23.6-9.4-32.4c-9.4-8.8-1.5,1.5-1.5,1.5s10.3,8.5,9.1,34.2L239.2,214.1z"/>
	<path id="XMLID_57_" class="st7" d="M243.1,204.7c0,0,7.6-33.9,0-42.4L228.6,175c0,0,8.5-15.8,17.3-17.9
		C245.9,157.2,251.9,180.5,243.1,204.7z"/>
	<path id="XMLID_56_" class="st7" d="M246.2,199c0,0,12.4-17.3,42.4-33.3l-1.2-2.1c0,0-30.6,18.2-42.4,35.1L246.2,199z"/>
	<path id="XMLID_55_" class="st7" d="M285.3,136.7l-36.4,50.2l-3,6.4l-0.6,3c0,0,33-48.5,41.8-59.1L285.3,136.7z"/>
	<g id="XMLID_48_">
		<path id="XMLID_54_" class="st8" d="M281.5,124.9c0,0-5.8,4.6,0.3,8.7c0,0-3.7,4.3-1.7,7.1c2.1,2.8,4.7,2.4,4.7,2.4
			s1.1,3.7,3.8,4.1c2.6,0.4,4.5-2.8,4.5-2.8s3.9,2.5,6.3,1.5c2.4-1,2.4-3.9,2.4-3.9s4.6-1.4,4.3-5.5c-0.3-4-3.8-2.2-3.8-2.2
			s3.6-2.8,2.7-6c-0.9-3.2-3.3-6.7-6.5-7c-3.2-0.3-4.8,4.1-4.8,4.1s-1.8-5.4-6.3-5.9C282.7,119.1,281.5,124.9,281.5,124.9z"/>
		<path id="XMLID_53_" class="st4" d="M289.8,130.2c0,0,2.5,0.4,2.1-1.9c-0.4-2.3-3.4-6.8-6.8-5.1c0,0-2.1,1.6-1.3,3.2
			c0,0-1.9,1-2.6,2.8c-0.6,1.8,6.9,5.9,7.6,4.1c0.7-1.8-2.1-4.2-1.9-4.7C287,128.2,289.8,130.2,289.8,130.2z"/>
		<path id="XMLID_52_" class="st4" d="M293.4,130.5c0,0,3.6-1.3,4.2-1.1c0.6,0.2-3.1,2.1-2.9,2.9c0.3,0.8,7.6,0.8,8.3-0.9
			c0.6-1.7-1.1-2.9-1.1-2.9s-0.3-3.3-2.6-4.3C296.9,123.1,293.6,126.9,293.4,130.5z"/>
		<path id="XMLID_51_" class="st4" d="M295.5,135c0,0,2.8,3.3,2.5,3.7c-0.3,0.4-3.9-3-3.9-3s-1.4,7.3,0.7,8.1c2,0.7,5.3-1.4,5.7-3.5
			c0,0,3-0.8,3.5-2.3C304.5,136.6,299.2,133.5,295.5,135z"/>
		<path id="XMLID_50_" class="st4" d="M289.5,136.6c0,0-1-1.8-4.2,0.1c-3.3,1.8-3.4,4.2,0.5,5.4c0,0,1.1,0.2,1.3,1.2
			c0.1,0.9,2.6,2,3.7,1.1c1.1-0.8,1.7-7.7,1.2-7.9c-0.5-0.3-2.7,2.6-3.2,2.8C288.2,139.4,289.5,136.6,289.5,136.6z"/>
		<path id="XMLID_49_" class="st4" d="M293.7,134.2c-0.3,0.8-1.4,1.1-2.4,0.8c-1-0.4-1.6-1.3-1.4-2.1c0.3-0.8,1.4-1.1,2.4-0.8
			C293.4,132.4,294,133.4,293.7,134.2z"/>
	</g>
	<g id="XMLID_41_">
		<path id="XMLID_47_" class="st8" d="M283.8,153.7c0,0-6.6,2.8-1.9,8.2c0,0-4.6,3.1-3.3,6.2c1.2,3.1,3.8,3.4,3.8,3.4
			s0.1,3.8,2.5,4.8c2.4,1,4.9-1.5,4.9-1.5s3,3.4,5.5,3c2.5-0.4,3.3-3.1,3.3-3.1s4.6-0.2,5.4-4c0.7-3.9-3-3.1-3-3.1s4.1-1.7,4.1-4.9
			c0-3.2-1.4-7.1-4.4-8.2c-3-1.1-5.5,2.6-5.5,2.6s-0.3-5.6-4.4-7.1C286.4,148.5,283.8,153.7,283.8,153.7z"/>
		<path id="XMLID_46_" class="st4" d="M290.3,160.7c0,0,2.3,1,2.4-1.3c0.2-2.2-1.5-7.2-5.1-6.5c0,0-2.3,0.9-2.1,2.7
			c0,0-2.1,0.4-3.1,2c-1,1.5,5,7.2,6.1,5.8c1.1-1.5-0.9-4.5-0.7-4.9C288.1,158.2,290.3,160.7,290.3,160.7z"/>
		<path id="XMLID_45_" class="st4" d="M293.5,161.9c0,0,3.8-0.3,4.2,0c0.5,0.3-3.4,1.1-3.4,1.9c0,0.8,7,2.7,8,1.2c1-1.5-0.3-3-0.3-3
			s0.5-3.2-1.4-4.7C298.7,155.9,294.6,158.6,293.5,161.9z"/>
		<path id="XMLID_44_" class="st4" d="M294.4,166.7c0,0,1.8,3.8,1.4,4.1c-0.4,0.3-2.9-3.8-2.9-3.8s-3.1,6.5-1.4,7.7
			c1.7,1.2,5.3,0.1,6.2-1.9c0,0,3,0,3.9-1.2C302.4,170.4,298.3,166.2,294.4,166.7z"/>
		<path id="XMLID_43_" class="st4" d="M288.4,166.6c0,0-0.5-1.9-4-1c-3.5,0.9-4.3,3.1-0.9,5.1c0,0,1,0.5,0.9,1.4
			c-0.1,0.9,2,2.5,3.2,2c1.2-0.5,3.5-6.8,3.1-7.2c-0.4-0.4-3.2,1.8-3.7,1.8C286.4,168.9,288.4,166.6,288.4,166.6z"/>
		
			<ellipse id="XMLID_42_" transform="matrix(0.8224 0.5689 -0.5689 0.8224 145.231 -136.5506)" class="st4" cx="291.3" cy="164.3" rx="1.9" ry="1.5"/>
	</g>
	<g id="XMLID_34_">
		<path id="XMLID_40_" class="st8" d="M212,172.4c0,0-4.7,4.2,0.8,7.3c0,0-2.9,3.9-1,6.1c1.9,2.2,4.1,1.7,4.1,1.7s1.2,3.1,3.4,3.2
			c2.2,0.1,3.6-2.6,3.6-2.6s3.4,1.9,5.4,0.9c2-1,1.8-3.5,1.8-3.5s3.8-1.5,3.3-4.9c-0.5-3.4-3.4-1.7-3.4-1.7s2.9-2.6,1.9-5.2
			c-1-2.7-3.2-5.4-5.9-5.5c-2.8,0-3.8,3.8-3.8,3.8s-1.9-4.5-5.7-4.6C212.7,167.4,212,172.4,212,172.4z"/>
		<path id="XMLID_39_" class="st4" d="M219.4,176.4c0,0,2.1,0.2,1.6-1.7c-0.5-1.9-3.3-5.5-6.1-3.9c0,0-1.6,1.4-0.9,2.8
			c0,0-1.6,1-2,2.5c-0.4,1.6,6.2,4.5,6.7,3c0.5-1.5-2.1-3.4-1.9-3.8C216.9,174.9,219.4,176.4,219.4,176.4z"/>
		<path id="XMLID_38_" class="st4" d="M222.4,176.4c0,0,3-1.4,3.5-1.2c0.5,0.1-2.5,1.9-2.2,2.6c0.3,0.7,6.5,0.2,6.9-1.3
			c0.4-1.5-1.1-2.3-1.1-2.3s-0.5-2.8-2.5-3.4C225,169.9,222.4,173.3,222.4,176.4z"/>
		<path id="XMLID_37_" class="st4" d="M224.5,180.1c0,0,2.6,2.6,2.3,3c-0.2,0.4-3.5-2.3-3.5-2.3s-0.7,6.3,1,6.8
			c1.8,0.5,4.4-1.5,4.6-3.3c0,0,2.5-0.8,2.8-2.1C232.2,180.8,227.6,178.5,224.5,180.1z"/>
		<path id="XMLID_36_" class="st4" d="M219.5,181.8c0,0-0.9-1.4-3.6,0.3c-2.7,1.7-2.6,3.8,0.7,4.5c0,0,1,0.1,1.1,0.9
			c0.1,0.8,2.4,1.5,3.2,0.7c0.9-0.8,0.9-6.6,0.5-6.8c-0.5-0.2-2.1,2.4-2.5,2.6C218.6,184.2,219.5,181.8,219.5,181.8z"/>
		
			<ellipse id="XMLID_35_" transform="matrix(0.9641 0.2656 -0.2656 0.9641 55.4865 -52.3413)" class="st4" cx="221.3" cy="179" rx="1.7" ry="1.3"/>
	</g>
	<path id="XMLID_33_" class="st7" d="M258.6,139.5c0,0-1.2,25.2-10,48.9l2.7-2.4c0,0,8.2-25.1,9.7-46.3L258.6,139.5z"/>
	<g id="XMLID_26_">
		<path id="XMLID_32_" class="st8" d="M246,122.5c0,0-4.4,7,3.5,8.9c0,0-2.3,5.9,0.9,8c3.2,2.1,5.8,0.8,5.8,0.8s2.6,3.5,5.4,2.9
			c2.9-0.6,3.6-4.5,3.6-4.5s5,1.2,7.1-0.8c2.1-2,1.1-5,1.1-5s4.2-3.2,2.4-7.3c-1.8-4.1-4.8-0.9-4.8-0.9s2.7-4.2,0.6-7.3
			c-2.1-3-5.9-5.8-9.4-4.8c-3.5,0.9-3.5,6.1-3.5,6.1s-3.9-5-8.8-3.8C245.1,116,246,122.5,246,122.5z"/>
		<path id="XMLID_31_" class="st4" d="M256.7,124.9c0,0,2.8-0.6,1.5-2.8c-1.3-2.2-6.1-5.8-9-2.8c0,0-1.6,2.4-0.2,3.9
			c0,0-1.7,1.7-1.7,3.9c0,2.1,9.4,3.6,9.5,1.5c0.1-2.1-3.8-3.6-3.8-4.1C253.1,123.9,256.7,124.9,256.7,124.9z"/>
		<path id="XMLID_30_" class="st4" d="M260.5,123.9c0,0,3.3-2.8,4-2.8c0.6,0-2.5,3.3-1.9,4c0.6,0.7,8.3-2,8.3-4c0-2-2.2-2.6-2.2-2.6
			s-1.6-3.3-4.3-3.5C261.5,114.9,259.4,120,260.5,123.9z"/>
		<path id="XMLID_29_" class="st4" d="M264.4,127.8c0,0,4.1,2.4,4,2.9c-0.2,0.6-5.1-1.7-5.1-1.7s1.3,8.2,3.7,8.2
			c2.4,0,5.1-3.4,4.6-5.8c0,0,2.9-1.9,2.9-3.7C274.4,126.1,267.8,124.8,264.4,127.8z"/>
		<path id="XMLID_28_" class="st4" d="M258.8,131.7c0,0-1.7-1.5-4.4,1.7c-2.8,3.1-2,5.7,2.5,5.4c0,0,1.3-0.2,1.7,0.7
			s3.5,1.1,4.3-0.2c0.8-1.3-1.1-8.6-1.7-8.7c-0.6-0.1-1.8,3.8-2.3,4.1C258.4,135.1,258.8,131.7,258.8,131.7z"/>
		<ellipse id="XMLID_27_" class="st4" cx="260" cy="127.6" rx="2.2" ry="1.7"/>
	</g>
	<path id="XMLID_25_" class="st7" d="M248.6,188.4c0,0,2.7-23.9-0.9-35.4c0,0-9.2,1.9-17,14.2c0,0,10-20.3,20-21.2
		c0,0,2.1,25.4,0.6,40L248.6,188.4z"/>
	<path id="XMLID_24_" class="st7" d="M253.4,179.6c0,0,8.5-29.1,12.1-32.1c3.6-3,2.4,39.4,2.4,39.4s-0.9-25.1-2.7-29.7
		C263.4,152.6,253.4,179.6,253.4,179.6z"/>
	<path id="XMLID_23_" class="st9" d="M147.9,107.9c0,0-0.1,12.6-4.7,19.8c0,0,7.6-6.1,7.9-11.2C151.4,111.4,147.9,107.9,147.9,107.9
		z"/>
	<path id="XMLID_22_" class="st9" d="M160.6,101.6c0,0,3.6,7.1-3.3,15.4c-7,8.3-22.9,20.9-7.7,34.4c0,0,2.1-1.2,0.1-5.1
		c-2-3.9-1.4-14.2,6.8-19.4C164.7,121.7,170.6,109,160.6,101.6z"/>
	<path id="XMLID_21_" class="st9" d="M172.7,105.2c0,0,3.3,11.2-6.4,18c-9.7,6.8-20.6,16.1-11.4,28h5.8c0,0-5.6-6.1,1.7-15.3
		c7.3-9.2,8.6-15.1,8.6-15.1s0.5,8.3-4.4,14.5c-4.8,6.2-6.1,12.4-1.5,16.5h5.4c0,0-7.3-9.4,0.8-14.4c0,0-5.9,7.1,1.4,14.7h5.1
		c0,0-5.5-8.5-1.8-16.2c3.6-7.7,3.9-15,0.6-20.3C176.7,115.7,177.7,109.8,172.7,105.2z"/>
	<path id="XMLID_20_" class="st9" d="M183.6,115.5c0,0-2.7,5-2.3,10.5c0.5,5.5-8.3,19.1-0.9,26.4h2.7c0,0-5.3-7.6,1.8-14.5
		c0,0,1.8,2.1-0.2,5.5c-2,3.3-1.1,6.8,0.6,9.1c0,0,10.8-7.4,10-17.3c-0.8-9.8-4.5-12.3-2.3-17.4c0,0-3.8,4.7-3,10.3
		c0.8,5.6-1.2,10.3-1.2,10.3s0-6.8-3-12C182.9,121.1,183.6,115.5,183.6,115.5z"/>
	<path id="XMLID_19_" class="st4" d="M148,153.1c0,0,15.1,3.9,38.9,0.6c0,0,2.7,5.1-2.4,6.7c0,0-13.3,1.5-34.5-0.8
		C150,159.6,143.6,156.1,148,153.1z"/>
	<path id="XMLID_18_" class="st4" d="M152.3,163.4c0,0,13.9,1.5,30.6,0.3c0,0,2.3,4.5-3.3,4.8c-5.6,0.3-18.9,0.5-25.4-0.5
		C154.1,168.1,149.4,166,152.3,163.4z"/>
	<path id="XMLID_17_" class="st4" d="M157.6,171.1c0,0,15.6,0.5,19.7,0.2c0,0,2.7,2.3-1.1,3.3c-3.8,1.1-14.8,0.3-18-0.2
		C158.2,174.4,154.4,172.6,157.6,171.1z"/>
	<path id="XMLID_16_" class="st4" d="M160.9,178.2c0,0-0.9,9.8,2.1,9.1c0,0,2.1-1.2,0.9-2.6c-1.2-1.4-1.8-3.8,1.1-5.1
		c2.9-1.4,6.8,2.4,7.9,1.8c1.1-0.6,0.8-4.4,0.8-4.4h-10.8C162.9,177,160.8,177.3,160.9,178.2z"/>
	<path id="XMLID_15_" class="st4" d="M166,183.1c0,0,3.6,3.9,7.3,3.5c3.6-0.5,1.4-2.4-0.3-2.9c-1.7-0.5-3.3-2.1-4.2-2.7
		C167.9,180.3,165.9,180.5,166,183.1z"/>
	<path id="XMLID_14_" class="st4" d="M166.8,188.2c0,0,4.4,3.9,6.1,4.4c1.7,0.5,4.2,1.5,5,1.4c0.8-0.2-2.3,0.6-2.1,2.6
		c0.2,2,0.9,5.3,3.6,6.1c0,0-0.3,1.8-1.8,1.1c-1.5-0.8-2.9-2.7-2.9-2.7l-1.5,13.8c0,0,1.2,1.2,4.4,1.2c3.2,0,7.9,3.5,10,6.2
		c2.1,2.7,3.6,5.9,5,5.1c1.4-0.8,3-8.8,5-11.7c2-2.9,1.7-3.2-0.9-4.8c-2.6-1.7-7.6-5.3-9.7-12.4c-2.1-7.1-3.8-10.6-9.8-12.6
		c0,0-4.1,3.8-7,1.7C167.3,185.3,166,185.6,166.8,188.2z"/>
	<path id="XMLID_13_" class="st4" d="M156.7,183.2c0,0,0.6,4.7,4.2,5.1c3.6,0.5,6.5,2.3,6.7,3.6c0.1,1.4-3.9,2.4-4.1,1.2
		c-0.1-1.2-0.8-3.2-1.5-3.2c-0.8,0,0.3,3.3-0.5,3.2c-0.8-0.2-4.4-1.4-4.8-2.7c-0.5-1.4-0.8-2.3-0.8-2.3s-1.1,2.1-1.4,1.1
		C154.2,188.2,152.6,181.7,156.7,183.2z"/>
	<path id="XMLID_12_" class="st4" d="M151.7,188.1c0,0,3.9,6.7,14.5,7.3c0,0,3.2,0.2,3.5,3.2s-5.5,1.7-5.5,1.7s0.2-3.8-0.8-3.8
		c-0.9,0,0,3.5-1.5,3.2c-1.5-0.3-5.5-1.5-6.4-2.6c-0.9-1.1-0.3-2.6-1.2-3c-0.9-0.5-1.1,1.1-1.5,1.1
		C152.4,195,147.6,191.7,151.7,188.1z"/>
	<path id="XMLID_11_" class="st4" d="M150.8,197.2c0,0,9.1,3.9,14.8,5c0,0-0.3,3.8-2.3,3.6c-2-0.2-2.4-3.3-2.4-3.3s0.6,2.1-1.4,2.1
		c-2,0-3.5-0.3-4.1-1.7c-0.6-1.4-0.9-2.9-1.4-2.3c-0.5,0.6-1.2,2-2,1.4C151.4,201.4,148.3,198.2,150.8,197.2z"/>
	<path id="XMLID_10_" class="st4" d="M151.1,204.9c0,0,1.2,2.9,2.1,3.2c0.9,0.3,1.1,2.1,2.4,1.5c1.4-0.6,1.7-1.2,1.7-1.2
		s-0.5,2.4,1.4,2.4c1.8,0,3.6-1.7,2.6-3.2c-1.1-1.5-4.2-2.4-4.2-2.4S150.9,202.9,151.1,204.9z"/>
	<path id="XMLID_9_" class="st4" d="M169.4,194.6c0,0,1.2,2.3,2.4,2s0.9-2.3-0.1-2.9C170.6,193.1,168.8,192.2,169.4,194.6z"/>
	<path id="XMLID_8_" class="st4" d="M166.8,205.8c0,0-0.9-2,1.7-3.8c2.6-1.8,3-0.2,3,0.8c0,0.9-0.9,17.4-0.9,17.4s-5,1.2-7.3,0.5
		l-0.3-6.5c0,0,0.9-1.1-0.2-2.1c-1.1-1.1,0-3.6,0-3.6S166,207.8,166.8,205.8z"/>
	<path id="XMLID_7_" class="st4" d="M163.3,222.9c0,0,4.8,1.7,7.3-0.6c0,0,2.3,0.3,1.1,3s-7.7,2-8.9,1.4
		C161.5,226.1,160.1,223.2,163.3,222.9z"/>
</g>
</svg>
